<?xml version="1.0" encoding="UTF-8"?>
<svg xmlns="http://www.w3.org/2000/svg" version="1.1" viewBox="0 0 1060 1060">
  <defs>
    <style>
      .cls-1 {
        fill: #aaabae;
      }

      .cls-2 {
        fill: #2d2e2f;
        stroke: #aaabae;
        stroke-miterlimit: 10;
        stroke-width: 60px;
      }
    </style>
  </defs>
  <!-- Generator: Adobe Illustrator 28.6.0, SVG Export Plug-In . SVG Version: 1.2.0 Build 709)  -->
  <g>
    <g id="Layer_1">
      <rect class="cls-2" x="30" y="30" width="1000" height="1000" rx="120" ry="120"/>
      <path class="cls-1" d="M554,517l222-222h14c6,3.3,12.8,4.8,20.5,4.5s14.5-3.2,20.5-8.5c8-6,13.3-14,16-24,2-6,3.3-15,4-27,.7-8,1.3-13.7,2-17,1.3-6,3.3-10.7,6-14,6.7-7.3,15.7-14,27-20,2.7-1.3,4-2.3,4-3s-2.2-1-6.5-1-9.8.8-16.5,2.5-13.7,5.3-21,11-11.3,10.5-12,14.5l-1,6c-1.3,8.7-4.3,15.3-9,20-8.7,8.7-18.7,12.3-30,11-10-.7-18-4-24-10-3.3-3.3-5.7-8.7-7-16-.7-5.3-.7-11,0-17l1-9-18-3c-16-1.3-32.3-1.7-49-1-24,.7-47.3,4-70,10-26,6-53,15.7-81,29-15.3,8-35,18.7-59,32-14,8.7-22.7,13.3-26,14-10.7,3.3-26.3,3.7-47,1-10-2-20.3-6-31-12l-4-3c-6-.7-12-.7-18,0-1.3,0-2,.3-2,1s1,2,3,4l43,44c4.7,4,5.5,7.5,2.5,10.5s-7.2,4.2-12.5,3.5c-3.3,0-7.5-1-12.5-3s-7.8-2.7-8.5-2l-8,8c-.7.7-.7,1.7,0,3l37,37c1.3,1.3,3,1.3,5,0l22-22c2.7-2.7,5.7-2.7,9,0l21,22c2,2,4.3.7,7-4,9.3-19.3,21-37,35-53s34.7-29.8,62-41.5,57.3-19.8,90-24.5c22.7-4,44.7-3.3,66,2,16.7,4,31.7,10.3,45,19v16l-221,221c-1.3.7-2,1.5-2,2.5s.3,1.8,1,2.5l7,7c1.3,1.3,2.7,1,4-1ZM187,890l2-4c6-11.3,12.7-20.3,20-27,3.3-2.7,7.7-4.3,13-5,4-.7,9.7-1.3,17-2,12.7-1.3,22-2.7,28-4,10-3.3,18-9,24-17,4.7-5.3,7.3-11.8,8-19.5s-1-14.5-5-20.5v-14l234-234,208,209,2,43,10,10,1-20c0-3.3,1.7-5.7,5-7l-1,32,69,69-2-49,10-10,49,2-69-69-32,1c1.3-3.3,3.7-5,7-5l19-1-10-11-42-1-462-462c-25.3-24.7-37.7-40.3-37-47,.7-3.3,3.7-5.7,9-7,2-.7,4.3-1,7-1l-129-79,78,129,2-7c1.3-5.3,3.7-8,7-8,6.7-1.3,22.3,10.7,47,36l67,67-18,17c-.7.7-.2,3.5,1.5,8.5s2.8,9.2,3.5,12.5c.7,6-.5,10.3-3.5,13s-6.5,2-10.5-2l-44-44c-2-2-3.3-3-4-3s-1,1-1,3c-.7,5.3-.7,11,0,17l3,4c6,10.7,10,21,12,31,2.7,20.7,2.3,36.3-1,47-.7,3.3-5.3,12.3-14,27-13.3,23.3-24,43-32,59-13.3,27.3-23,54-29,80-6,23.3-9.3,46.7-10,70-.7,17.3-.3,33.7,1,49l3,18,8-1c6.7-.7,12.7-.3,18,1,7.3.7,12.7,2.7,16,6,6,6,9.3,14,10,24,1.3,11.3-2.3,21.3-11,30-4.7,4.7-11,7.7-19,9l-7,1c-5.3,2-10.3,6.2-15,12.5s-8,13-10,20-2.8,12.7-2.5,17,.8,6.5,1.5,6.5ZM269,765c-8.7-13.3-15-28.3-19-45-5.3-21.3-6-43.3-2-66,4.7-32.7,12.8-62.7,24.5-90s25.5-48,41.5-62,33.7-25.7,53-35c4.7-2.7,6-5,4-7l-22-21c-2.7-3.3-2.7-6.3,0-9l33-33,135,136-232,232h-16Z"/>
    </g>
  </g>
</svg>