<?xml version="1.0" encoding="UTF-8"?>
<svg xmlns="http://www.w3.org/2000/svg" version="1.1" viewBox="0 0 1060 1060">
  <defs>
    <style>
      .cls-1 {
        fill: #aaabae;
      }

      .cls-2 {
        fill: #2d2e2f;
        stroke: #aaabae;
        stroke-miterlimit: 10;
        stroke-width: 60px;
      }
    </style>
  </defs>
  <!-- Generator: Adobe Illustrator 28.6.0, SVG Export Plug-In . SVG Version: 1.2.0 Build 709)  -->
  <g>
    <g id="Layer_1">
      <rect class="cls-2" x="30" y="30" width="1000" height="1000" rx="120" ry="120"/>
      <path class="cls-1" d="M263,567c0-8-2.5-14.8-7.5-20.5s-11.2-8.5-18.5-8.5-13.5,2.8-18.5,8.5-7.5,12.5-7.5,20.5,2.5,14.7,7.5,20,11.2,8,18.5,8,13.5-2.7,18.5-8,7.5-12,7.5-20ZM367,347c8.7,0,16.2-3.3,22.5-10s9.5-14.7,9.5-24-3.2-17.3-9.5-24-13.8-10-22.5-10-16,3.3-22,10-9,14.7-9,24,3,17.3,9,24,13.3,10,22,10ZM551,272c8,0,14.8-3.2,20.5-9.5s8.5-13.8,8.5-22.5-2.8-16.2-8.5-22.5-12.5-9.5-20.5-9.5-14.8,3.2-20.5,9.5-8.5,13.8-8.5,22.5,2.8,16.2,8.5,22.5,12.5,9.5,20.5,9.5ZM752,314c7.3,0,13.7-2.7,19-8s8-12,8-20-2.7-14.8-8-20.5-11.7-8.5-19-8.5-13.5,2.8-18.5,8.5-7.5,12.5-7.5,20.5,2.5,14.7,7.5,20,11.2,8,18.5,8ZM874,275c-4.7,4.7-9.3,9.7-14,15-10.7,10-18.3,16.7-23,20-2.7,1.3-6.3,3-11,5l-7,2-7,4c-5.3,4-9.7,6.3-13,7-6.7,2.7-15.3,4.7-26,6s-20.7,2-30,2-13.3-.3-18-1l-4-1c.7-2,1.8-4.2,3.5-6.5s3.8-4.5,6.5-6.5v-2c0-.7-.3-1.5-1-2.5s-3.3,0-8,3-8.7,5.8-12,8.5c-3.3-4-6.2-8.3-8.5-13s-4.2-11-5.5-19c-2-9.3-2.7-18.3-2-27,2-26,6.7-45.3,14-58,4-6.7,8.7-14.7,14-24l8-11c-4,.7-7.8,1.8-11.5,3.5s-10.2,6.8-19.5,15.5c-10.7,10-18,18.7-22,26-9.3,14-13.7,26.7-13,38,0,5.3,2,12.7,6,22,2.7,8,5.3,14,8,18,7.3,12,15.7,23,25,33l-11,11c-8,8-14,14.3-18,19-5.3,6-10.7,17.7-16,35l-1,2c-2,4-5,7-9,9l-7,3c-5.3,2-9,3.7-11,5-5.3,4-10.3,8-15,12-5.3-5.3-9-12-11-20-2-10.7-7-26-15-46-2.7-6-6-13-10-21l-5-11,10-12c8-8.7,13.7-15.7,17-21,4.7-8,9.7-18.3,15-31,6.7-15.3,10.7-26.7,12-34,2-16-1-33-9-51-5.3-10.7-11.5-19.8-18.5-27.5s-15.8-15.8-26.5-24.5c-8.7-8-14.3-12.7-17-14s-4.3-1.7-5-1l4,5c11.3,14,18.5,24.7,21.5,32s4.2,17.3,3.5,30l-2,17,5,6c4,4.7,6.5,9.5,7.5,14.5s1.3,12.8,1,23.5-1.2,19.7-2.5,27c-2,10-4.7,19-8,27-2.7,6-5.7,11.3-9,16l-4,5-3-4-3-4-1-5c-.7-4-1.7-7-3-9s-2.8-3.8-4.5-5.5-3.2-2.2-4.5-1.5-1.5,2.2-.5,4.5,1.5,4.8,1.5,7.5-1,4-3,4c-4-6.7-8.3-12.7-13-18l-8-8c-19.3-22.7-35.7-39.2-49-49.5s-26.8-18.8-40.5-25.5-25-10-34-10-16.5,1.7-22.5,5c-4.7,2.7-11,7.7-19,15l-10,9c-3.3,3.3-5.7,5.8-7,7.5s-2,4.5-2,8.5l6-4c4.7-2.7,11-4,19-4s24,6.7,42,20l28,19,16-2c11.3-1.3,19.7-1,25,1,13.3,4,23.3,9,30,15,4,3.3,9.3,9,16,17s10.3,12.3,11,13c1.3,5.3,2.7,8.3,4,9l2,1c6,4,10.7,8,14,12,6.7,7.3,12.7,19,18,35,7.3,20.7,11,39.7,11,57s-.8,13.3-2.5,24-2.5,19-2.5,25c-.7,19.3-8.7,41.7-24,67-3.3,5.3-5,8.3-5,9l3,5c6.7,10,11,18.3,13,25,.7,3.3,2.2,7.3,4.5,12s3.2,8,2.5,10c-.7,3.3-4,7.3-10,12-6.7,4.7-13.7,8.7-21,12l2,4c2.7,2,6,4,10,6l4,1c8.7,3.3,15.3,7,20,11,2.7,2.7,6,6.5,10,11.5s6,8.2,6,9.5c-10.7-7.3-21.7-13.7-33-19-6-2.7-14-5.7-24-9-8-2-14.3-4-19-6-24-10-47-22.3-69-37-14.7-10-27.7-22-39-36-6.7-2-13.3-5-20-9l-4-2c-6.7-4-10.5-7.5-11.5-10.5s-1.2-8.2-.5-15.5l2-11-9-26c-5.3-18-8.3-30.7-9-38-1.3-10-2-20.3-2-31l12-14c9.3-9.3,17-15.3,23-18,15.3-7.3,28.7-11,40-11s10.7,1,22,3l8,1c1.3,0,6.2-3.2,14.5-9.5s15.2-12.5,20.5-18.5l14-17c8.7-10,13.3-15.8,14-17.5s1.3-3.8,2-6.5l-12,7c-8.7,3.3-17.3,5-26,5s-11.3-.7-22-2l-8-1c-2.7,0-8.3,1.7-17,5-11.3,4.7-22.3,10.8-33,18.5s-20.3,15.8-29,24.5-12.3,13.3-17,20l-5,8c-1.3-3.3-2-6.7-2-10,0-6.7,1-13,3-19,0-2.7-1-4.5-3-5.5s-4.5.7-7.5,5-5.3,8.7-7,13-2.2,8.8-1.5,13.5l-4-1c-2.7-2-5.3-4.3-8-7v-1c-8-11.3-13.3-19.7-16-25-5.3-13.3-8-27.3-8-42s1-14,3-20c1.3-4.7,3-8.7,5-12l4-4c-3.3-11.3-4.7-22.7-4-34,.7-8,1.7-14.3,3-19l1-4c.7-5.3,1.7-10.3,3-15s3-8.7,5-12,3-6.7,3-10l-10,9c-9.3,8.7-18.7,19-28,31-11.3,14-19.3,26.3-24,37-4.7,10.7-7.3,21.7-8,33-.7,24.7,11,48.7,35,72l45,44c-.7,7.3-1,15-1,23,.7,10,2.3,20,5,30,5.3,17.3,8,35,8,53s-1,24-3,36c-1.3,10-2.5,16.2-3.5,18.5s-1.5,4.8-1.5,7.5h8c6.7.7,11.3,1.7,14,3l8,4,3,1c2.7.7,4.3,1.3,5,2l32,38c10.7,12,22,23,34,33l15,12c-3.3,0-6.7-.3-10-1-6.7-1.3-14-4-22-8-5.3-3.3-10.3-7.3-15-12-12.7,3.3-22.3,4.8-29,4.5s-15-2.2-25-5.5c-13.3-4-24.5-9.7-33.5-17s-16.2-14.7-21.5-22c-4-4.7-7.3-9.3-10-14l-2-5,2-23c2-15.3,1.3-34.7-2-58-1.3-8.7-5.5-22.7-12.5-42s-13.3-33.5-19-42.5-14.2-16.3-25.5-22-22.3-8.5-33-8.5c-20.7,0-36,3.7-46,11,18.7,3.3,34.3,12,47,26,10,12,21,29.7,33,53,6.7,1.3,12.3,4,17,8,14.7,11.3,24.3,27.3,29,48,.7,5.3,1.3,12.7,2,22l1,12c0,2-.7,3-2,3l-3-1-4-3c-2.7-2-4.7-2.7-6-2s-2,2-2,4l3,7c2,5.3,2.3,9,1,11-12,.7-23.3,4-34,10-8,5.3-18.7,15.7-32,31s-22.3,28.3-27,39c-7.3,16.7-9.7,35-7,55,.7,8,5,18.3,13,31l11,17,3-18c2.7-12.7,5-21.5,7-26.5s6.7-12.8,14-23.5l9-15v-25c.7-16.7,1.2-26,1.5-28s3-6.8,8-14.5,9.5-13.2,13.5-16.5c7.3-6,15.7-9,25-9l9,11c7.3,8.7,14.3,16.7,21,24,16,17.3,30,30,42,38,10,6,25.7,14.3,47,25,9.3,4.7,18.3,11.3,27,20l11,11,10-7c7.3-5.3,13.7-9,19-11s12.8-3.7,22.5-5,17.8-2,24.5-2c11.3,0,23,3,35,9s18,11,30,21l17,16c12.7,12.7,22.3,24.3,29,35,8,14.7,14,27.3,18,38,5.3,12.7,8.5,25.3,9.5,38s1.8,25,2.5,37v5l2,7c4.7-4.7,9.7-9.2,15-13.5s11-8.2,17-11.5c10-14,21.3-26.3,34-37,18.7-14.7,35.3-23.3,50-26,6.7-1.3,14.2-1.8,22.5-1.5s14.7,1,19,2,8.2,3.2,11.5,6.5,5.3,7.2,6,11.5.7,7.8,0,10.5l-1,4c5.3-1.3,9-4.3,11-9s2-9.8,0-15.5-4.7-9.8-8-12.5v-1c-4.7-4.7-8.7-8-12-10-6-4-13.3-6.7-22-8-12-1.3-22.7-3.7-32-7l-36-12c-6-2-12-4.3-18-7-2-1.3-7.3-7.3-16-18l-14-17-14-14c-6-6.7-9.7-11-11-13l-2-2c-6-8.7-9.8-16.2-11.5-22.5s-2.2-13.3-1.5-21,2-13.7,4-18,6.3-7.8,13-10.5c4.7-2,10-3.3,16-4l8-1c-.7-6-3.7-10.7-9-14-2.7-2-7.7-3.8-15-5.5s-12.7-3.5-16-5.5c-9.3-5.3-18-14-26-26-9.3-14-14-29-14-45s5.3-35.8,16-59.5,20.2-38,28.5-43,19.2-7.5,32.5-7.5,2.7-.7,4-2l2-1-3-8c-2.7-8-3-16-1-24,.7-6,2.8-13,6.5-21s7.5-14,11.5-18c5.3-5.3,11.3-10,18-14l17,5c13.3,3.3,25,5.3,35,6,18.7,2,35,1.7,49-1,5.3-1.3,11.2-3.8,17.5-7.5s11.7-7.5,16-11.5,9-11.3,14-22,8.2-19.3,9.5-26v-12ZM721,490c-8,0-15,3.3-21,10s-9,14.5-9,23.5,3,16.8,9,23.5,13.2,10,21.5,10,15.3-3.3,21-10,8.5-14.5,8.5-23.5-2.8-16.8-8.5-23.5-12.8-10-21.5-10ZM722,566c-8,0-14.8,3-20.5,9s-8.5,13.3-8.5,22,2.8,16,8.5,22,12.5,9,20.5,9,14.8-3,20.5-9,8.5-13.3,8.5-22-2.8-16-8.5-22-12.5-9-20.5-9ZM659,530c-9.3,0-17.3,3.7-24,11s-10,16-10,26,3.3,18.5,10,25.5,14.5,10.5,23.5,10.5,16.8-3.5,23.5-10.5,10-15.5,10-25.5-3.3-18.7-10-26-14.3-11-23-11Z"/>
    </g>
  </g>
</svg>