<?xml version="1.0" encoding="UTF-8"?>
<svg xmlns="http://www.w3.org/2000/svg" version="1.1" viewBox="0 0 1060 1060">
  <defs>
    <style>
      .cls-1 {
        fill: #aaabae;
      }

      .cls-2 {
        fill: #2d2e2f;
        stroke: #aaabae;
        stroke-miterlimit: 10;
        stroke-width: 60px;
      }
    </style>
  </defs>
  <!-- Generator: Adobe Illustrator 28.6.0, SVG Export Plug-In . SVG Version: 1.2.0 Build 709)  -->
  <g>
    <g id="Layer_1">
      <rect class="cls-2" x="30" y="30" width="1000" height="1000" rx="120" ry="120"/>
      <path class="cls-1" d="M786,704c-5.3-2.7-13-6-23-10-16.7-6-28.3-11.7-35-17l-8-6c-19.3-12-32-20.7-38-26-8-7.3-15.2-15.2-21.5-23.5s-10.7-15-13-20-8.8-16.8-19.5-35.5l-9-16c-9.3-14.7-14.7-25-16-31,9.3,9.3,17.7,18.7,25,28,.7,1.3,2.3,4,5,8,4,8,8,13.3,12,16,0,.7.5.7,1.5,0l1.5-1c-2-10.7-2.2-22-.5-34s4.5-22,8.5-30c.7-1.3.3-2.7-1-4-12.7-5.3-23.7-11.3-33-18-6-3.3-13.7-8.7-23-16l-13-10-7-5c-12.7-8-21.7-16.3-27-25,3.3,2.7,10.7,7,22,13l10,6,8,5c4.7,4,8.7,7,12,9,.7,0,1.3-.5,2-1.5s1-1.8,1-2.5l-4-11c-5.3-15.3-7.7-28.7-7-40-2-4-4-7.7-6-11-8.7-7.3-15.7-14.3-21-21-3.3-4-6.7-9.3-10-16-3.3-5.3-5.7-9.3-7-12l-6-8c-7.3-10-13-18.7-17-26-7.3-12.7-12.7-26.3-16-41-19.3,2-36.3,2.7-51,2s-31-3-49-7c-2-.7-8.7-4.3-20-11-18.7-11.3-32.7-19-42-23s-21-8-35-12l-11-4c-7.3-2-16-4-26-6l-11-2c-28-5.3-55.7-12.3-83-21-8,11.3-12.7,25-14,41,0,9.3,1,23,3,41l2,15c1.3,12,2.3,20.3,3,25,2,7.3,6.3,17.7,13,31,5.3,10,9,18,11,24,1.3,4,3,10.7,5,20,2,7.3,3.7,12.7,5,16l5,13c3.3,9.3,5.3,16.3,6,21,4,.7,7,.3,9-1s4-3.7,6-7c4-6,8-9,12-9h1c19.3,1.3,33,1.7,41,1,13.3-1.3,23.8-4.8,31.5-10.5s15.8-14.8,24.5-27.5c6.7-9.3,12.3-19,17-29,.7,3.3.3,7.3-1,12-.7,2.7-2.5,7.3-5.5,14s-5.2,12-6.5,16-2.7,9.7-4,17-2.3,12.3-3,15c-1.3,4-3.5,6.7-6.5,8s-10.2,1.3-21.5,0l-29-4c-13.3-2.7-22.3-3.8-27-3.5s-8,1.5-10,3.5c-5.3,4.7-10.3,10-15,16-1.3,1.3-2,3.2-2,5.5s1.7,5.5,5,9.5l2,4c2.7,3.3,7.3,9.5,14,18.5,6.7,9,10.3,14.5,11,16.5,1.3,4.7,2.2,12,2.5,22s1.5,17.3,3.5,22c.7,2,3.3,5.3,8,10l5,7c2.7,3.3,6.3,9,11,17,8,14.7,14.7,24.3,20,29,1.3,0,2.8-.2,4.5-.5s2.2-.8,1.5-1.5c-5.3-14.7-7.7-32.3-7-53v-6c.7-17.3.3-29.7-1-37,0-3.3-1.5-8.2-4.5-14.5s-4.2-11.2-3.5-14.5c8.7,10,14.3,21,17,33,3.3,13.3,3.7,28.3,1,45,.7.7,4,3,10,7l13,10,16,10c9.3,6,15,10,17,12,5.3,4.7,11,13,17,25,4,6.7,7,11.3,9,14,10,13.3,17.7,22.7,23,28,15.3,15.3,25.7,28,31,38,.7.7,1.5,1.2,2.5,1.5s1.8.2,2.5-.5c6-9.3,14-16.3,24-21,12.7-6,21.3-8.7,26-8,3.3,0,6.7,1.3,10,4l6,3,6,1c.7-.7.7-1.7,0-3-2.7-7.3-17-18.3-43-33-3.3-1.3-8.3-3-15-5-10.7-2.7-17.7-5.7-21-9,18,1.3,38.7,7.3,62,18,14,6,33.7,16.7,59,32l6,3c2.7,2,11,8,25,18l10,8c5.3,2,12.5,3.3,21.5,4s16.2.3,21.5-1c2,0,4.7-1,8-3,4.7-3.3,9-5,13-5l7,5c4,2.7,7,5,9,7s4.3,6,5,10c-8-5.3-15-8-21-8-4-.7-9.3.3-16,3-12.7,3.3-24.7,4.3-36,3,1.3,5.3,6,12.3,14,21,5.3,7.3,9.3,12.7,12,16,2.7,6,5.7,13.7,9,23l4,9,4,15,11,22,11,21c4.7,8.7,8.7,15,12,19,5.3,6,11.3,9.7,18,11-4-12-5-23.3-3-34,1.3-6.7,4.7-15.3,10-26,4-9.3,6.5-16.2,7.5-20.5s1.3-9.8,1-16.5-.2-11.7.5-15c4,0,9.3,1.2,16,3.5s11.3,3.8,14,4.5c4-2,10-5.3,18-10,12.7-8,23-12.3,31-13,4.7,0,13,1,25,3l11,2c-17.3-22.7-41.7-41.3-73-56ZM284,280c-2,2-6.2,3.3-12.5,4s-10.5,0-12.5-2c-5.3-3.3-8.8-8.5-10.5-15.5s-.5-11.8,3.5-14.5c2-1.3,4-2,6-2s4.7.3,8,1c1.3,0,3.3.7,6,2l9,5c2.7,1.3,4.7,4.5,6,9.5s.3,9.2-3,12.5Z"/>
    </g>
  </g>
</svg>