<?xml version="1.0" encoding="UTF-8"?>
<svg xmlns="http://www.w3.org/2000/svg" version="1.1" viewBox="0 0 1060 1060">
  <defs>
    <style>
      .cls-1 {
        fill: #aaabae;
      }

      .cls-2 {
        fill: #2d2e2f;
        stroke: #aaabae;
        stroke-miterlimit: 10;
        stroke-width: 60px;
      }
    </style>
  </defs>
  <!-- Generator: Adobe Illustrator 28.6.0, SVG Export Plug-In . SVG Version: 1.2.0 Build 709)  -->
  <g>
    <g id="Layer_1">
      <rect class="cls-2" x="30" y="30" width="1000" height="1000" rx="120" ry="120"/>
      <path class="cls-1" d="M589,207c-1.3,0-4,.3-8,1-7.3.7-12.7,2-16,4-5.3,2-8.8,6-10.5,12s-.5,10.8,3.5,14.5,9.7,5.2,17,4.5c5.3-1.3,9-4,11-8,1.3-2,2.3-5.7,3-11s1.7-8.8,3-10.5,3.2-3.2,5.5-4.5,4.5-1.3,6.5,0l3,5c5.3,8,11,13.3,17,16s14.7,5,26,7c13.3,2,25.7,2.3,37,1,14,6,29,9.2,45,9.5s31.7-1.8,47-6.5l5,5c4.7,4.7,8.3,8,11,10,4.7,2.7,9.5,4.3,14.5,5s10.2-1.3,15.5-6c3.3-2.7,6.7-4.7,10-6,5.3,2,11,2.7,17,2,3.3,0,7.7-.8,13-2.5s9-2.5,11-2.5c5.3,3.3,9.3,8.3,12,15,2.7,6.7,3,14.7,1,24-.7,4-3,8.7-7,14-2.7,3.3-7.3,8.3-14,15-8.7,8-15,14.7-19,20-6.7,8-11.3,16-14,24,0,4,.8,6.3,2.5,7s3.8.5,6.5-.5,4.7-1.2,6-.5,2,3,2,7c-10.7,8.7-19.7,18-27,28-7.3,11.3-13.3,24.3-18,39-2.7,8-9,16-19,24,1.3,8,1.3,18.3,0,31l-1,12c-8,10.7-14,27.7-18,51-2.7,15.3-5,39.7-7,73-.7,6,.7,13,4,21l3,10c2.7,36,12.3,63,29,81,0,4.7-1.7,7.7-5,9-1.3,0-2.5.7-3.5,2s-1.5,4.3-1.5,9c0,6.7,1.7,12,5,16,2,2,5.3,4.3,10,7h1l3,8c1.3,5.3,3,9.3,5,12,17.3,13.3,33.7,28,49,44-2.7,13.3-9.3,24.3-20,33-6.7,1.3-12.7.7-18-2-3.3-1.3-7.5-4.3-12.5-9s-8.7-7.3-11-8-3.7-.2-4,1.5-.2,4.2.5,7.5c.7,6,0,9.3-2,10-5.3,0-11.5-2.2-18.5-6.5s-13.2-6.5-18.5-6.5c-2.7-8.7-8-16.3-16-23-5.3-3.3-13.7-7.8-25-13.5s-20-10.2-26-13.5c-3.3,1.3-4.8,2.5-4.5,3.5s1.5,2.2,3.5,3.5,3.2,2.7,3.5,4-.5,2.7-2.5,4c-28.7-7.3-52-11.3-70-12-28-2-50.3,1.7-67,11-4.7,1.3-8.7,3.7-12,7s-4.3,5.3-7,10-5,7.7-7,9c-2.7,2.7-6,4.3-10,5-6-.7-11-3-15-7s-4.7-6-8-12l-6-9c-4.7-.7-8.8-2.3-12.5-5s-7.5-4.3-11.5-5c-6.7-2-17-3.7-31-5-22.7-.7-45,1.3-67,6-4.7,0-10.3-1.7-17-5l-7-3-21,10c-14,6.7-23.7,12-29,16-8,6.7-14,15-18,25-5.3-.7-11.3.8-18,4.5s-11.7,5.7-15,6-5.3-.2-6-1.5-.7-3.3,0-6c.7-4.7.3-7.3-1-8-4.7.7-10,3.3-16,8-4.7,4-8.7,6.7-12,8-4.7,2-10.3,2.3-17,1-8.7-6.7-14.7-17.7-18-33l8-8c17.3-17.3,31.3-29.3,42-36,.7-7.3,2.7-14.3,6-21,1.3-1.3,3.2-2.5,5.5-3.5s4.2-2.5,5.5-4.5c2.7-2.7,4.7-7,6-13,.7-2.7.7-4.5,0-5.5s-1.8-2-3.5-3-3.2-2.3-4.5-4-1.8-4.5-1.5-8.5,3-10,8-18,8.5-15,10.5-21c4-10.7,6.7-22.7,8-36,.7-49.3-.3-91.7-3-127l-3-9c-3.3-10.7-6.7-18-10-22,0-4.7-.7-10.7-2-18-1.3-10-1.7-18.3-1-25-4.7-9.3-11.3-17.3-20-24-9.3-34-23-55.7-41-65-.7-2.7-.5-4.5.5-5.5s2.7-1.8,5-2.5,4-1.7,5-3,1.2-3.7.5-7c-1.3-9.3-5-18-11-26-4-5.3-10-12-18-20-11.3-11.3-19-20.7-23-28-.7-6-.3-11.7,1-17,1.3-3.3,3.7-8,7-14l4-7c3.3-1.3,9.7-1,19,1s16.7,2.8,22,2.5,10.3,1.8,15,6.5c4.7,4.7,9.3,7,14,7,6-1.3,12-5.7,18-13,4-4.7,7.3-8,10-10,26,5.3,52.8,6.8,80.5,4.5s51.5-8.2,71.5-17.5c6.7-2.7,12.7-6.7,18-12,2.7-2.7,5.2-4.5,7.5-5.5s6.2-1.2,11.5-.5c-4.7,6-6.5,11.5-5.5,16.5s4.3,8.2,10,9.5,11.2.3,16.5-3c3.3-2,3.2-6.8-.5-14.5s-8.2-13.5-13.5-17.5l2-2c9.3-10,16.7-17,22-21,8.7-6.7,18.3-11,29-13,0-1.3,2.3-3.8,7-7.5s7-6.5,7-8.5c14,8,23.7,18.7,29,32,20-2,35.7,7,47,27ZM383,325l-5,5c-5.3,6.7-8.7,12.7-10,18,2,5.3,5,10.7,9,16,2.7,2.7,7,6.5,13,11.5s10,8.8,12,11.5c3.3,4.7,5.3,9.3,6,14,.7,2.7-1.3,4-6,4-2.7-.7-4.3-.7-5,0s-.3,2.7,1,6c4,5.3,9,8,15,8s11.7-1.3,21-4c3.3,4,7.2,7.8,11.5,11.5s7.8,5.7,10.5,6,5,2.2,7,5.5c2.7,4,6,6.3,10,7,4-6,5-12,3-18-.7-3.3-3.2-7.7-7.5-13s-7.2-9.3-8.5-12c0-4.7-1.3-10.7-4-18-2.7-8.7-3.7-16.7-3-24-4,0-6.8-.5-8.5-1.5s-3.2-2.8-4.5-5.5l-3-3c.7-4.7,0-8.7-2-12-1.3-1.3-3.3-3.7-6-7-5.3-4.7-8.3-9-9-13-6,.7-11.3-.7-16-4-2.7-2-5.7-5.5-9-10.5s-6-7.8-8-8.5c-4.7,8-6,18-4,30ZM638,310c-1.3,2-2.7,3-4,3s-3-.8-5-2.5-4-2.5-6-2.5c-2.7,2-8.3,4-17,6s-14.7,4.3-18,7v1c-6.7,6-11.3,10.7-14,14-5.3,7.3-8.3,14.3-9,21,.7,8.7-.3,17.3-3,26-2,5.3-3.3,10-4,14-.7,6.7-.7,14.7,0,24,12-12,21-19.3,27-22,2.7-1.3,6.2-2.2,10.5-2.5s7.5-1,9.5-2,4.3-3,7-6,4-6.5,4-10.5c.7-2.7.7-7,0-13l-1-4c10.7,0,19.3-5,26-15,5.3-8.7,8.3-20,9-34v-4c-.7-5.3-1.7-8.3-3-9-.7,2-1.8,4.3-3.5,7s-3.5,4-5.5,4ZM283,410c2,1.3,6.2,2.2,12.5,2.5s11.8,1.2,16.5,2.5c3.3,1.3,8.8,3.8,16.5,7.5s13.5,5.8,17.5,6.5c6,2,11,2,15,0-.7-4.7-4.3-10-11-16s-10.7-11.3-12-16c.7-2,.2-4.3-1.5-7s-1.8-5.7-.5-9c-4-1.3-7.3-3.7-10-7-1.3-2.7-3-6.3-5-11-3.3-8-6.7-13.3-10-16-6-.7-14.3-3-25-7-7.3-3.3-13-5.3-17-6-.7,16.7.3,32,3,46,2,16,5.7,26,11,30ZM766,338c-1.3-3.3-3.7-4.7-7-4-2.7,2-9.5,4.3-20.5,7s-18,5.3-21,8-5.2,6.3-6.5,11c-1.3,8-5,14.7-11,20-4.7,3.3-8,10-10,20s-1,16,3,18,8,2.3,12,1c2.7-.7,6-2.3,10-5s7-3.7,9-3c6.7.7,12.3.3,17-1,2.7-.7,5.5-2.2,8.5-4.5s4.7-4.8,5-7.5.5-7,.5-13c-.7-8.7-.3-15.7,1-21,1.3-9.3,4.7-18,10-26ZM313,504c-1.3,12-1.2,20.3.5,25s4.5,7.3,8.5,8c10.7,24,23.7,38.7,39,44,.7-3.3.7-6,0-8s-2-4-4-6c-2.7-4-4-7.3-4-10,8.7,3.3,15,2.3,19-3,.7-2,1.2-5.8,1.5-11.5s1.2-8.8,2.5-9.5l4-2c4-1.3,6.3-3,7-5-2.7-5.3-6.3-9.5-11-12.5s-8.3-6.2-11-9.5c-6.7-8-12-13.7-16-17-7.3-4.7-14.7-7-22-7-2-3.3-6.3-6.2-13-8.5s-10.8-2-12.5,1-2,5.8-1,8.5,2.8,5.7,5.5,9c4.7,5.3,7,10,7,14ZM706,480c-3.3-.7-5.8-.8-7.5-.5s-3.8.8-6.5,1.5l-7,3c-5.3,2-9.2,4.7-11.5,8s-3.5,8-3.5,14c-4,1.3-8.3,3.8-13,7.5-4.7,3.7-7.3,7.5-8,11.5,3.3,1.3,5.3,3.2,6,5.5s1,5.7,1,10,.5,7.7,1.5,10,3.2,3.8,6.5,4.5c4.7,2,9.7,1.7,15-1,2.7-1.3,7-4.3,13-9,10.7-7.3,19.3-11.3,26-12-2.7-14.7-2.7-25.7,0-33,1.3-4,4-8,8-12,2.7-2,4.3-3.8,5-5.5s.3-4.5-1-8.5c-3.3-4.7-7.3-6-12-4-2.7,1.3-6,4-10,8l-2,2ZM543,494c8.7,17.3,13,32.7,13,46s-2,17.7-6,29c-2.7,6.7-4,11.7-4,15-1.3,6-1,11.7,1,17,3.3-.7,6.2-2,8.5-4s4.8-5,7.5-9c5.3-7.3,10.7-13,16-17,.7-7.3,2.3-13,5-17,2-2.7,5-5.7,9-9,6-4,9.7-8.3,11-13-1.3-1.3-3.7-3.5-7-6.5s-5.7-5.5-7-7.5c-2-3.3-3-7-3-11-2-1.3-5-2.2-9-2.5s-6.7-1.2-8-2.5c-.7-2.7-2.5-5.2-5.5-7.5s-4.5-4.5-4.5-6.5c-2-.7-3.5-2.5-4.5-5.5s-2.2-5.2-3.5-6.5-4.3-2-9-2v20ZM433,540c.7,3.3,3.7,6.7,9,10,3.3,2.7,5.7,5,7,7,2,3.3,2.7,7.7,2,13,12,18.7,23.7,28.7,35,30-.7-14-3.2-28.8-7.5-44.5s-9.5-28.8-15.5-39.5c-8.7-1.3-15.5.3-20.5,5s-8.2,10.7-9.5,18v1ZM680,626l-2,1c-8.7,5.3-14.7,10.7-18,16l-7,21c-5.3,16-8.7,27-10,33-2,10.7-.3,16.7,5,18,4.7-2,9.7-7.7,15-17,4-6,7.3-10,10-12,4-2.7,9.7-6.7,17-12l8-5c1.3-6.7,3.7-12,7-16,2-2.7,5-5.3,9-8,6-4,9.7-8.3,11-13-8,.7-14.3-1-19-5-2.7-2.7-5.7-7-9-13-2-5.3-4-9-6-11-2.7-3.3-6.3-5-11-5,.7,3.3.7,7.7,0,13s-.7,10.3,0,15ZM317,640c0,1.3,1,4.3,3,9l4,9,1,5c.7,4.7,1,8.3,1,11s-1,6.7-3,12c4.7,8,9.8,13.5,15.5,16.5s13.5,3.5,23.5,1.5l3,3c10.7,9.3,18,13.3,22,12,.7-2-.3-7-3-15-3.3-9.3-5-17-5-23-2-4-5.3-8-10-12l-4-3c.7-2.7,2.7-5.2,6-7.5s4.7-5.5,4-9.5l-30-18c-6.7-3.3-14.3-6.7-23-10-4,8.7-5.7,15-5,19ZM429,666c-4.7,8.7-6.7,14.7-6,18s4.3,7,11,11l7,4c0-7.3,3.2-16.5,9.5-27.5s9.5-21.2,9.5-30.5c-5.3,0-11-2.7-17-8-4-3.3-7-5.3-9-6-4-2-8.7-2.7-14-2-3.3,8.7-4.3,15.3-3,20,.7,3.3,2.8,6.8,6.5,10.5s5.5,7.2,5.5,10.5ZM586,637c-.7,3.3,0,6.2,2,8.5s2.3,5.8,1,10.5c-11.3,6.7-18.3,16.7-21,30,.7,14,4.7,21,12,21,4-2.7,6.7-6.3,8-11s1-9.3-1-14c1.3-1.3,3.7-2.3,7-3,5.3-.7,8-2.3,8-5-.7-4.7,0-9,2-13,.7-2,2.2-4.3,4.5-7s4-5.3,5-8,1.2-7.3.5-14v-7c-7.3,0-12.8.7-16.5,2s-7.5,4.7-11.5,10ZM667,721c-4.7,10.7-4.3,17.3,1,20,.7,2.7,1.5,4.3,2.5,5s3.8,1.3,8.5,2c.7-4.7,4-11.7,10-21l6-8c4-6,6.7-10.3,8-13,1.3-4.7.7-8.3-2-11-6.7-.7-13.2,1.5-19.5,6.5s-11.2,11.5-14.5,19.5ZM447,761c.7-3.3-.2-7.7-2.5-13s-2.8-10-1.5-14c-3.3.7-7.5.2-12.5-1.5s-9.8-1.8-14.5-.5c-2.7,8-.8,15,5.5,21s14.8,8.7,25.5,8ZM587,736c.7,5.3,3.2,9.3,7.5,12s9.5,3.7,15.5,3c4.7-4.7,7-10.7,7-18-4.7-1.3-10.3-1-17,1-5.3,1.3-9.7,2-13,2ZM497,783v2c.7,7.3,1.7,12.3,3,15,2.7,3.3,8,5.3,16,6,1.3-4,4.7-9,10-15,6-8,9.7-14.3,11-19-4.7-1.3-9.7-.3-15,3-2,1.3-4,2.3-6,3l-2-5c-1.3-2.7-2.7-4.5-4-5.5s-3.7-1.5-7-1.5c0-3.3-1.3-6.2-4-8.5s-6-3.5-10-3.5l2,5c3.3,11.3,5.3,19.3,6,24Z"/>
    </g>
  </g>
</svg>