<?xml version="1.0" encoding="UTF-8"?>
<svg xmlns="http://www.w3.org/2000/svg" version="1.1" viewBox="0 0 1060 1060">
  <defs>
    <style>
      .cls-1 {
        fill: #aaabae;
      }

      .cls-2 {
        fill: #2d2e2f;
        stroke: #aaabae;
        stroke-miterlimit: 10;
        stroke-width: 60px;
      }
    </style>
  </defs>
  <!-- Generator: Adobe Illustrator 28.6.0, SVG Export Plug-In . SVG Version: 1.2.0 Build 709)  -->
  <g>
    <g id="Layer_1">
      <rect class="cls-2" x="30" y="30" width="1000" height="1000" rx="120" ry="120"/>
      <path class="cls-1" d="M764,700c-43.3-44-92-97.7-146-161-38.7-45.3-67-80.3-85-105-32.7-42-60-81-82-117l-10-15c-2.7-3.3-10-1-22,7l-3,2c-4,2.7-6.7,3.2-8,1.5s-.7-3.5,2-5.5l18-13c14-10.7,21.2-17.3,21.5-20s-1.7-8.3-6-17-9.5-16.7-15.5-24-10.5-11-13.5-11-9.8,2.7-20.5,8l-27,13c-4,1.3-6.3,1.2-7-.5s3.7-6.2,13-13.5c7.3-5.3,11.3-9,12-11s-1.8-8.3-7.5-19-9.7-16.5-12-17.5-7.7.3-16,4-16.2,8.2-23.5,13.5-11,9.5-11,12.5,9,17.2,27,42.5c-18,7.3-35.3,12-52,14-14.7,2-35,2-61,0,3.3,19.3,10.7,38.7,22,58,10,16.7,23,33.3,39,50l3,3c-1.3.7-6.3-2.3-15-9-10.7-8.7-21-19.7-31-33-16-21.3-28-44.7-36-70-11.3-2-23.3-6.3-36-13-8.7-4.7-17-10.3-25-17l-10-9,1,13c1.3,11.3,3.7,23,7,35,4.7,17.3,10.7,34.7,18,52,10,21.3,22.7,41.7,38,61,16,22,35,42.3,57,61,16,12.7,32.7,24,50,34l21,11-2-21c-.7-16.7,0-32.7,2-48,3.3-21.3,9.3-39.7,18-55,11.3-19.3,25.7-36,43-50,29.3,38.7,70,91.3,122,158l45,58c56,70.7,91.7,116.3,107,137,16.7,23.3,34,49.3,52,78,20.7,33.3,33.3,57.3,38,72l1,1c5.3,15.3,8.7,23.3,10,24,3.3.7,9.3-3.3,18-12s16-18.7,22-30c13.3-25.3,18.7-43,16-53-.7-2.7-6-8-16-16-18-13.3-32.7-26-44-38ZM484,458c-.7-.7-1.7-.8-3-.5s-2.3.8-3,1.5c-76,94-146.7,174.3-212,241-11.3,12-25.7,24.7-43,38-10.7,8-16.3,13.3-17,16-2.7,10,2.7,27.7,16,53,6,11.3,13.3,21.3,22,30s14.7,12.7,18,12c2-.7,5.7-9,11-25,5.3-14.7,18-38.7,38-72,18-28.7,35.2-54.3,51.5-77s54.5-71.7,114.5-147l28-36c2-2,2.3-4,1-6l-22-28ZM890,228c-3.3,3.3-6.7,6.3-10,9-8,6.7-16.3,12.3-25,17-12.7,6.7-24.7,11-36,13-8,25.3-20,48.7-36,70-6.7,9.3-14,17.7-22,25-6,5.3-11.3,9.5-16,12.5s-7.3,4.5-8,4.5l3-3c16-16.7,29-33.3,39-50,11.3-19.3,18.7-38.7,22-58-26,2-46.3,2-61,0-16.7-2-34-6.7-52-14,18-25.3,27-39.5,27-42.5s-3.7-7-11-12-15.2-9.5-23.5-13.5-13.8-5.5-16.5-4.5-6.7,6.8-12,17.5-7.7,17-7,19,4.7,5.7,12,11c8.7,7.3,12.8,11.7,12.5,13s-2.5,1.7-6.5,1l-27-13c-10.7-4.7-17.5-7.2-20.5-7.5s-7.5,3.2-13.5,10.5-11.2,15.3-15.5,24c-4.3,8.7-6.3,14.3-6,17s7.5,9.3,21.5,20l18,13c2.7,2.7,3.3,4.7,2,6s-4,.7-8-2l-3-2c-12-8-19.3-10.3-22-7-1.3,2-6.7,9.7-16,23-20,31.3-36,54.7-48,70-2,3.3-1.7,6.3,1,9l21,26c.7.7,1.8,1,3.5,1s2.8-.7,3.5-2c12.7-15.3,40.3-51.3,83-108,17.3,14.7,31.7,31.3,43,50,8.7,15.3,14.7,33.7,18,55,2,15.3,2.7,31.3,2,48l-2,21,21-11c17.3-10,34-21.3,50-34,22-18.7,41-38.7,57-60,15.3-20,28-40.7,38-62,7.3-17.3,13.3-34.7,18-52,3.3-12,5.7-23.7,7-35l1-13Z"/>
    </g>
  </g>
</svg>