<?xml version="1.0" encoding="UTF-8"?>
<svg xmlns="http://www.w3.org/2000/svg" version="1.1" viewBox="0 0 1060 1060">
  <defs>
    <style>
      .cls-1 {
        fill: #aaabae;
      }

      .cls-2 {
        fill: #2d2e2f;
        stroke: #aaabae;
        stroke-miterlimit: 10;
        stroke-width: 60px;
      }
    </style>
  </defs>
  <!-- Generator: Adobe Illustrator 28.6.0, SVG Export Plug-In . SVG Version: 1.2.0 Build 709)  -->
  <g>
    <g id="Layer_1">
      <rect class="cls-2" x="30" y="30" width="1000" height="1000" rx="120" ry="120"/>
      <path class="cls-1" d="M867,663c-6.7-6.7-14-12.7-22-18-2.7-2-5.3-1.7-8,1-7.3,6.7-21.3,20.7-42,42l-8,8c-1.3,2-3.7,3-7,3h-3c-.7-3.3-.2-6.3,1.5-9s8.2-9.7,19.5-21c16-16.7,25.3-26.7,28-30,1.3-2.7,2-4.7,2-6s-1-3-3-5c-14-12.7-22.5-19.8-25.5-21.5s-6.2-2.2-9.5-1.5l1,9c-.7,7.3-3,13.5-7,18.5s-18,19.5-42,43.5l-4,4c-9.3,8.7-15,19.3-17,32-1.3,6.7-1.7,15.3-1,26,.7,4,.7,6.3,0,7s-2.3.3-5-1c-6.7-2-14-3-22-3s-13.7,1.7-23,5l-12,6,4-5c3.3-3.3,6.7-6,10-8,5.3-3.3,10.7-5.7,16-7,2.7-.7,7.3-.3,14,1l9,1c-2.7-9.3-3-18.3-1-27,2.7-11.3,7.7-21.3,15-30l14-15c10-9.3,17-16.3,21-21,2-2.7,3.2-4.8,3.5-6.5s-.2-3.5-1.5-5.5l-1-4c-.7-3.3-.5-6.8.5-10.5s2.2-4.8,3.5-3.5c4.7,4,8.5,4.5,11.5,1.5s1.8-6.8-3.5-11.5l-51-46c-31.3-26.7-48.2-41-50.5-43s-4.3-1.8-6,.5c-1.7,2.3-1.8,4.8-.5,7.5.7.7-.5,1.5-3.5,2.5s-6.3,1.2-10,.5-7.2-2.7-10.5-6c-5.3-6.7-13-9.8-23-9.5s-18.7,4.5-26,12.5c-11.3,11.3-15,30.3-11,57,2,12.7,4.7,25.3,8,38-12.7-6-25.7-10.7-39-14-11.3-3.3-23-4.7-35-4,9.3-4.7,19.7-7.3,31-8,4,0,9,1,15,3l9,2c-3.3-12-5-24.3-5-37s2.2-19.8,6.5-29.5,10.5-17.5,18.5-23.5c4-4,9.3-7,16-9s14-2.5,22-1.5,17,5.2,27,12.5l2-6c1.3-4.7,1.7-8.7,1-12-.7-1.3-2.3-4.3-5-9l-7-10c-2-3.3-3.3-9-4-17,0-3.3-.3-5.3-1-6-2.7-3.3-12.3-3.7-29-1h-4c-1.3,0-4-1.7-8-5l-4-3c-4.7-4-7.7-5.5-9-4.5s-2,3.2-2,6.5l-1,6c0,1.3-3,4.3-9,9l-21,18-16,16c-6,6.7-9.5,13-10.5,19s-1.2,14.7-.5,26l1,16-14-3c-10.7-2-19-3-25-3s-16,1-24,3c6.7-6.7,14-11,22-13,4-1.3,9.7-1.7,17-1l9,1-1-9c0-7.3.7-14.3,2-21,2-9.3,5.7-17.7,11-25,4.7-6,13.3-14,26-24l9-7c6.7-7.3,9.3-15.3,8-24-.7-3.3-2.3-8.3-5-15l-4-10c-2-4.7-3.7-15.3-5-32-.7-10.7-1.3-17.2-2-19.5s-4.3-10.2-11-23.5l-10-23c-4-10-7.7-17.3-11-22-5.3-8.7-11.3-15-18-19-10.7-6-28.3-8.3-53-7h-6c-6.7,0-19.3-2-38-6l-2-1c-16.7-3.3-30.3-3.7-41-1-7.3,2-19.3,14.7-36,38l-5,7c-2,2.7-6,5.8-12,9.5s-9.3,6.5-10,8.5c-1.3,3.3-2,7.5-2,12.5s1.3,8.7,4,11,6.7,4.5,12,6.5l7,2-6,1c-4.7.7-9.3.3-14-1-6-2-11-6.3-15-13-2-3.3-2-9,0-17s4-13.3,6-16l9-7c12-10,19.8-17.5,23.5-22.5s8.2-11.2,13.5-18.5,8.7-11.7,10-13c6.7-5.3,13-8,19-8s8.3,1,13,3l1,1c8.7,3.3,16,5.3,22,6h15c8-.7,15-.3,21,1l7,2c7.3,2.7,13.3,4.7,18,6,6.7.7,11,0,13-2,1.3-1.3.8-4.5-1.5-9.5s-5.5-8.8-9.5-11.5c-8-6-24.7-23-50-51l-2-2c-8-9.3-17.3-16.2-28-20.5s-22-6.2-34-5.5c-9.3,0-18.3,3.3-27,10-5.3,3.3-11.7,9.7-19,19-6,7.3-10.7,11.7-14,13l-4,1c-17.3,1.3-31.3,7.3-42,18-8,8.7-12.7,22.3-14,41l-1,4c0,1.3-3.7,5.7-11,13-7.3,7.3-12.7,13-16,17-7.3,8.7-11.3,16.7-12,24-3.3,14-4,28.3-2,43-3.3,2-6.3,4.7-9,8-4,4.7-7.7,10.7-11,18-4.7,11.3-6.8,24-6.5,38s4.2,26,11.5,36c4.7,6,13.3,14.3,26,25l8,6c13.3,11.3,30.7,21.3,52,30,17.3-.7,29.7-3.2,37-7.5s13.3-11.5,18-21.5l3-6,4-2c14.7-4.7,23.3-8.3,26-11,7.3-6.7,12.7-14.7,16-24,1.3-4,2-7.7,2-11l7-2c4.7-1.3,9-3.3,13-6,5.3-3.3,8.7-7.3,10-12,2.7-6.7,4.7-14.7,6-24l1-7c2.7-8.7,5.7-17.3,9-26l-14-13c-5.3-4-11.3-7-18-9l6-6c1.3-2,2.3-4,3-6l10,7c8,4.7,15.3,7.7,22,9,9.3,2,19,2.7,29,2,5.3-.7,8.3.7,9,4,0,2-.5,3.8-1.5,5.5s-1.8,2.5-2.5,2.5c-5.3,0-10.7.3-16,1-1.3.7-3.3,3.3-6,8s-4.7,9-6,13l-3,9c-6.7,19.3-10.3,31.7-11,37-2,10-2.7,20-2,30,.7,13.3,3.3,24.3,8,33,7.3,12,16.3,22.3,27,31,.7,1.3-.8,1.2-4.5-.5s-8.2-4.2-13.5-7.5c-7.3-6-13.3-12.3-18-19-5.3-7.3-8.5-15.3-9.5-24s-1.8-17-2.5-25c-4-2-11.3,2.3-22,13s-5.7,7.3-11,16c-3.3,6-5.5,9.3-6.5,10s-3.5,1.7-7.5,3c-12.7,3.3-22,7-28,11-2,1.3-5.5,5.3-10.5,12s-8.5,10.7-10.5,12c-4.7,2.7-16,4.3-34,5,2.7,8,6,14.8,10,20.5s10.3,12.2,19,19.5c10,8.7,18,13.7,24,15,8,2.7,17.7,4.3,29,5,14,.7,26,3,36,7,5.3,2.7,11,7,17,13,2,2.7,3.5,4,4.5,4s4.2-1.3,9.5-4c8.7-4.7,13.7-6.7,15-6s2.2,1.7,2.5,3-.2,2.7-1.5,4l-5,5c-8,8.7-12.3,13.7-13,15-2.7,5.3-2,10.3,2,15l3,2c2,2,3,3.7,3,5l-1,4c-3.3,15.3-3,25,1,29,.7.7,3,1,7,1,7.3.7,13,2,17,4l10,6c4.7,3.3,7.7,5.3,9,6,5.3.7,9.3,0,12-2l51,57c35.3,39.3,55,61.3,59,66,2.7,4,3.3,9.3,2,16-.7,4.7,0,8,2,10,8.7,10,25.3,29,50,57,1.3,2,3.3,3.2,6,3.5s5,.2,7-.5l-1-3c-.7-2-.5-4.5.5-7.5s3.5-6.2,7.5-9.5l54-54c7.3-7.3,12.3-16.3,15-27,1.3-6,2-13.7,2-23-.7-4.7-.7-7.2,0-7.5s3.3-.5,8-.5c9.3,0,17-.7,23-2,10-2.7,18.7-7.7,26-15l60-59c3.3-3.3,6.7-5.7,10-7s6-2,8-2h3l1-2c-.7-2-2.3-4.3-5-7Z"/>
    </g>
  </g>
</svg>