<?xml version="1.0" encoding="UTF-8"?>
<svg xmlns="http://www.w3.org/2000/svg" version="1.1" viewBox="0 0 1060 1060">
  <defs>
    <style>
      .cls-1 {
        fill: #989498;
      }

      .cls-2 {
        fill: #5c448e;
        stroke: #cda349;
        stroke-miterlimit: 10;
        stroke-width: 60px;
      }
    </style>
  </defs>
  <!-- Generator: Adobe Illustrator 28.6.0, SVG Export Plug-In . SVG Version: 1.2.0 Build 709)  -->
  <g>
    <g id="Layer_1">
      <rect class="cls-2" x="30" y="30" width="1000" height="1000" rx="120" ry="120"/>
      <path class="cls-1" d="M746,327c0,2,1.3,4.2,4,6.5s5,3.8,7,4.5,4.5-.2,7.5-2.5,5.2-3.2,6.5-2.5c3.3,2,12.3,9,27,21,26.7,21.3,41.7,32,45,32s8-3.8,14-11.5,8-13.2,6-16.5c-2.7-6-8.8-13.5-18.5-22.5s-17.8-15.2-24.5-18.5c-2.7-1.3-6-.7-10,2s-7.7,3.7-11,3c-.7,0-1.8-1.3-3.5-4s-1.8-4.7-.5-6c4-6,6.2-12,6.5-18s-1.5-10.3-5.5-13c-6-4.7-11.7-4.7-17,0l-1,1c-1.3.7-4.3-.3-9-3l-111-93c-19.3-16.7-34.3-27.7-45-33-16.7-9.3-34-13.7-52-13-12,0-25.7,4.7-41,14-13.3,8-24,16.7-32,26-12.7,14.7-21.3,26-26,34-6,10-9,20-9,30s4.2,9.5,12.5,14.5,16.5,7.8,24.5,8.5c4.7.7,10,.7,16,0,4.7,0,7.3.3,8,1,.7,2.7-3.2,5-11.5,7s-17.5,3-27.5,3-11.8-2-21.5-6-16.5-6-20.5-6-7.7,2.3-11,7-3.7,9-1,13l2,5c4,5.3,5.3,9.7,4,13-.7,2-3.3,8-8,18l-13,27c-12,25.3-21.7,42.7-29,52-12,16.7-23,21-33,13-4-1.3-5.7-.3-5,3,2,12.7-2,26.7-12,42-7.3,12-17,23.7-29,35-10.7,10-18.3,16-23,18s-9.7,3-15,3c-3.3.7-8.7.7-16,0h-1c-2,2.7-2.3,5.3-1,8l4,9c2.7,5.3,3.7,9,3,11-.7,4.7-4,9-10,13-4,2.7-6.7,5-8,7-3.3,4-4.7,9.3-4,16,5.3,16,47.3,27,126,33,46,4,95.3,6,148,6,68-.7,116-1.3,144-2,33.3-.7,60.7-2.7,82-6,17.3-2,40.7-6.3,70-13,2-.7,3.7-.5,5,.5s1,2.5-1,4.5c-14.7,9.3-39,16.7-73,22-24.7,3.3-58,6-100,8l-27,1c-40,2-68,3-84,3-68-.7-122.3-2.3-163-5-66.7-4-113.3-11.7-140-23-8.7-3.3-16.7-7.2-24-11.5s-11.7-7.7-13-10-3.3-3.7-6-4-4,.8-4,3.5c-1.3,10,4,20,16,30,10.7,8.7,24.2,16,40.5,22s31.2,9.7,44.5,11c2,0,3,1,3,3s-.8,3.8-2.5,5.5-4.5,3.5-8.5,5.5c-2,1.3-3.3,2.5-4,3.5s-.7,2.2,0,3.5c3.3,4,7,11,11,21,6.7,16.7,14,30.7,22,42,6.7,8.7,18.3,18.3,35,29,11.3,6.7,19,12.3,23,17,6,6.7,8.7,14.7,8,24,0,3.3-2,6.3-6,9-2,2-6.3,4.3-13,7-7.3,3.3-12.7,6.3-16,9-4.7,4.7-7,10-7,16-.7,11.3,7,20.7,23,28,12.7,6,29,10.7,49,14,18,2.7,35,4,51,4s26.3-1.3,31-4c3.3-2.7,5-7,5-13s.3-7.3,1-10c.7-3.3,3.3-6.3,8-9,8.7-6,18.8-8.8,30.5-8.5,11.7.3,21.2,4.2,28.5,11.5s4,7.3,4,14,1.8,11.7,5.5,15,15,4.8,34,4.5,38.2-2.2,57.5-5.5c22.7-4.7,39.7-11,51-19,9.3-6,13.3-14.3,12-25-.7-5.3-3-9.7-7-13-2.7-2-7.3-4.3-14-7s-11.3-5-14-7c-4.7-3.3-7.5-8-8.5-14s1.8-12.7,8.5-20c4.7-4.7,13-11,25-19,14-9.3,23.3-16.7,28-22,6.7-8,14.7-23,24-45,8-16.7,14-27.7,18-33,4.7-6,11-11.7,19-17l24-12c13.3-6.7,22.3-12,27-16,8-6.7,12-14.3,12-23s-1.7-9-5-13c-9.3-8.7-20.3-15.7-33-21-7.3-2.7-16.7-5.3-28-8-6.7-2-10.3-3.8-11-5.5s-1.2-3.5-1.5-5.5-.2-4.3.5-7c3.3-16-1.3-33.7-14-53-9.3-15.3-22.3-29.7-39-43-14-12-23.3-18-28-18h-7c-8,.7-14,0-18-2-8.7-4.7-17-12.3-25-23-5.3-7.3-10.3-15.7-15-25l-12-24c-10-18-17-31.3-21-40-.7-4-.2-7.5,1.5-10.5s2.2-6.5,1.5-10.5c-1.3-9.3-8-18-20-26l-2-1c-10.7-8-16-19-16-33s8.7-25.3,26-28c7.3-.7,17.7,3.3,31,12,8,5.3,20.7,15,38,29l101,80c-3.3,3.3-4.7,6.7-4,10ZM673,434h3l3,2c2.7,13.3,11,26.7,25,40,9.3,8.7,23,19,41,31,6,4.7,8,7.5,6,8.5s-5.3.8-10-.5h-1c-6-2-13.2-5-21.5-9s-15.2-7.7-20.5-11c-8-6-14-11.7-18-17-4.7-7.3-7-16.3-7-27l-1-3c0-9.3.3-14,1-14ZM538,532c-4,3.3-9.3,6-16,8-5.3,2-9.7,3-13,3-9.3,0-17.3-2.7-24-8s-10.3-13-11-23c9.3,10,19.7,15,31,15s19.8-4.5,25.5-13.5,5.5-20.2-.5-33.5c10,8.7,15.2,18.3,15.5,29,.3,10.7-2.2,18.3-7.5,23ZM562,474c-1.3-.7-2.7-1.7-4-3-9.3-6.7-16.3-11.3-21-14-6.7-2.7-15.7-4.3-27-5-17.3-1.3-32.5,3.8-45.5,15.5s-19.2,25.2-18.5,40.5c0,17.3,9,32,27,44-11.3,1.3-21.2-.5-29.5-5.5s-14.5-12.2-18.5-21.5-5-18.7-3-28c2.7-16.7,10.3-30.3,23-41,12-10,26.2-16.2,42.5-18.5s31.5-.3,45.5,6,23.7,16.5,29,30.5ZM286,480c3.3,0,9.3-6,18-18,8-10,12.5-17,13.5-21s.7-6.5-1-7.5-3.8-.8-6.5.5l-18,17c-3.3,3.3-5.7,6-7,8-2,3.3-3.2,6.7-3.5,10s0,6.2,1,8.5,2.2,3.2,3.5,2.5Z"/>
    </g>
  </g>
</svg>