<?xml version="1.0" encoding="UTF-8"?>
<svg xmlns="http://www.w3.org/2000/svg" version="1.1" viewBox="0 0 1060 1060">
  <defs>
    <style>
      .cls-1 {
        fill: #989498;
      }

      .cls-2 {
        fill: #5c448e;
        stroke: #cda349;
        stroke-miterlimit: 10;
        stroke-width: 60px;
      }
    </style>
  </defs>
  <!-- Generator: Adobe Illustrator 28.6.0, SVG Export Plug-In . SVG Version: 1.2.0 Build 709)  -->
  <g>
    <g id="Layer_1">
      <rect class="cls-2" x="30" y="30" width="1000" height="1000" rx="120" ry="120"/>
      <path class="cls-1" d="M811.1,721c-2.7-2.7-11-7.3-25-14-21.3-11.3-37.7-21.7-49-31-3.3-2.7-5.3-5.3-6-8s-1-6-1-10v-3c0-4.7-3.3-7-10-7h-24c-2,0-3.5-1-4.5-3s-1-3.3,0-4,2.8-1.7,5.5-3l1-1c6-2.7,11.3-6,16-10s7-7,7-9-1-2-3-4l-3-2c-6-5.3-11-11.3-15-18-.7-2-1.2-6.8-1.5-14.5s.2-14,1.5-19,5-12.5,11-22.5c3.3-5.3,5.3-22,6-50v-4c0-3.3.8-6.2,2.5-8.5s4-3.5,7-3.5,5.2,1.7,6.5,5l1,4,3,45c0,4,.3,8,1,12,.7,1.3,4.7,4.3,12,9,14.7,8,29,16.7,43,26,2,1.3,3.8,1.7,5.5,1s1.8-1.7.5-3c-10-16-15.7-28-17-36-.7-6.7-.3-22.3,1-47l2-36c1.3-32-2.7-63-12-93-10-33.3-26-64.7-48-94-20.7-26.7-48.7-49.3-84-68-32-17.3-64.3-27.7-97-31-12.7-1.3-29.3-2.7-50-4-23.3-1.3-42-3.3-56-6-9.3-1.3-19.7-5-31-11l-7-4c-2-1.3-3.7-1.7-5-1s-1.7,2-1,4l3,8c10,26,15.3,44,16,54,0,2,1,3.5,3,4.5s4.8,1.2,8.5.5,9.2-.7,16.5,0,12.3,1.3,15,2,5,3,7,7,2,6,0,6l-2,1c-15.3,1.3-27.7,4-37,8-11.3,4.7-23.7,11.7-37,21-18,12.7-33.3,26.7-46,42-7.3,9.3-14,21.3-20,36-4,8.7-8.7,22-14,40-6.7,22-12.3,36.5-17,43.5s-13.3,17.2-26,30.5l-3,4c-1.3,2-2,3.5-2,4.5s1,1.5,3,1.5h8c93.3.7,141,.8,143,.5s3-2.8,3-7.5,1.3-7.7,4-9c32.7-18.7,59.3-34.3,80-47,7.3-4.7,12.8-7.5,16.5-8.5s7.8-1.5,12.5-1.5c15.3,0,28.7,3.7,40,11,7.3,4.7,12.5,10.3,15.5,17s4.2,13.3,3.5,20c0,3.3-.5,5-1.5,5s-2.2-2.3-3.5-7c-1.3-7.3-5.3-13.7-12-19-4.7-4-9.7-7-15-9-7.3-4-17-5.7-29-5-4.7.7-13,5-25,13-35.3,23.3-55.5,36.7-60.5,40s-7.8,8-8.5,14c-.7,2.7-1.3,4.7-2,6-1.3,4-3.5,7-6.5,9s-6.2,3-9.5,3h-149c-2,0-3.2.8-3.5,2.5s-.5,4.5-.5,8.5v9c-.7,6.7-2,13-4,19-1.3,4-4,10-8,18l-10,20c-4.7,10.7-10.7,20.3-18,29-3.3,4.7-5,7.8-5,9.5s2.7,4.2,8,7.5l9,7c2.7,2,7,6,13,12,10.7,10.7,19.3,18.5,26,23.5s16.5,11.5,29.5,19.5,21,13.5,24,16.5,4.8,6.2,5.5,9.5l1,4c.7,2.7,2.7,3,6,1,6-4,18.7-13.3,38-28,2.7-2,4.5-2.5,5.5-1.5s.5,2.8-1.5,5.5l-4,4c-14,14-22.3,22.7-25,26s-3,8.3-1,15c6,11.3,13.2,22.8,21.5,34.5s15.2,19.5,20.5,23.5c4,2.7,8.7,3.7,14,3l53-27c36-18.7,55-28.7,57-30s3.8-1.8,5.5-1.5,1.8,1.2.5,2.5-23.3,16-66,44c-40,26-60.5,39.5-61.5,40.5s-1.5,4.2-1.5,9.5c0,12-1.7,21.7-5,29s-9.3,15.3-18,24c-6.7,6-11.3,9.7-14,11s-3.7,3-3,5v1c.7,2,11.3,1.7,32-1,15.3-1.3,31.8-3.5,49.5-6.5s36.5-8.2,56.5-15.5c28-10,49-21.3,63-34,23.3-21.3,46.7-40.7,70-58,32.7-26,56.3-41.3,71-46,19.3-6,39.7-8.7,61-8,16.7.7,33,3.7,49,9,2.7.7,4.7.2,6-1.5s1-3.8-1-6.5ZM366.1,656l-9,7c-2.7,2-6,1.7-10-1l-38-26-42-28c-1.3-.7-1.8-1.5-1.5-2.5s1.5-1.8,3.5-2.5l18-3c4-.7,7.7,0,11,2l66,48c3.3,2.7,3.7,4.7,1,6h1ZM396.1,635l-7,5c-3.3,2-6,2.3-8,1l-28-24-31-22c-1.3-.7-1.7-1-1-1l2-1,14-3c3.3-.7,6.3.3,9,3l48,37c2,1.3,3,2.2,3,2.5s-.7,1.2-2,2.5h1ZM426.1,613l-6,5c-2.7,1.3-5.3,1-8-1l-42-31c-3.3-2.7-3-4.3,1-5l9-2c4-.7,7.3,0,10,2l34,26c3.3,2.7,4,4.7,2,6ZM453.1,592l-5,4c-3.3,2.7-6,3-8,1l-27-20c-1.3-1.3-1.8-2.5-1.5-3.5s1.2-1.5,2.5-1.5l12-3c3.3-.7,6.7.7,10,4l16,12c3.3,2.7,3.7,5,1,7ZM429.1,840c-6,0-9-4-9-12s1-5.2,3-7.5,4.5-3.5,7.5-3.5,5,1,6,3,1.5,4.7,1.5,8v1c.7,3.3,0,6-2,8s-4.3,3-7,3ZM524.1,781c-3.3.7-5.7,2.3-7,5s-1.3,5.2,0,7.5,1.7,4,1,5-1.7.8-3-.5c-3.3-2-5.2-4.5-5.5-7.5s-.3-5.8,0-8.5,1.7-4.8,4-6.5c2.3-1.7,4.8-2.8,7.5-3.5,5.3,0,8,1.2,8,3.5s-.2,3.8-.5,4.5-1.2,1-2.5,1h-2ZM550.1,457c-4-6-9-10-15-12s-11.7-1.2-17,2.5-8.3,8.8-9,15.5,1.7,13.3,7,20c2,1.3.7,1.7-4,1s-8-2.3-10-5c-4.7-4.7-6.7-11.5-6-20.5s4.3-16,11-21c6.7-5,13.8-7.2,21.5-6.5s14.2,4.3,19.5,11c2,2.7,3.3,5.5,4,8.5s.8,5.2.5,6.5-1.2,1.3-2.5,0ZM619.1,729c-2.7.7-4.7,2.7-6,6-.7.7-.7,2.7,0,6v4c0,2-.5,3.3-1.5,4s-2.2.7-3.5,0c-4-2.7-5.3-7.2-4-13.5s5-9.8,11-10.5c2,0,3.8.5,5.5,1.5s1.2,1.8-1.5,2.5Z"/>
    </g>
  </g>
</svg>