<?xml version="1.0" encoding="UTF-8"?>
<svg xmlns="http://www.w3.org/2000/svg" version="1.1" viewBox="0 0 1060 1060">
  <defs>
    <style>
      .cls-1 {
        fill: #989498;
      }

      .cls-2 {
        fill: #5c448e;
        stroke: #cda349;
        stroke-miterlimit: 10;
        stroke-width: 60px;
      }
    </style>
  </defs>
  <!-- Generator: Adobe Illustrator 28.6.0, SVG Export Plug-In . SVG Version: 1.2.0 Build 709)  -->
  <g>
    <g id="Layer_1">
      <rect class="cls-2" x="30" y="30" width="1000" height="1000" rx="120" ry="120"/>
      <path class="cls-1" d="M223,461c-2,0-4.3-1.3-7-4l-25-34c-3.3-4-3.3-8,0-12l5-6c4-4,8-6,12-6h350c11.3,0,20.7,1,28,3,6,2,10.7,4.3,14,7l3,4c2.7,4,5,5.2,7,3.5s2.3-4.2,1-7.5l-3-6c-3.3-4-8-7-14-9-7.3-4-16.7-6-28-6H150c-2.7,0-5-1-7-3s-3-4.3-3-7v-30c0-2.7,1-5,3-7s4.3-3,7-3h492c2.7,0,5.7.8,9,2.5s5.7,3.8,7,6.5l11,21c3.3,7.3,6.3,11,9,11h205c2.7,0,4.7,1,6,3s1.7,4.3,1,7l-5,13c-4.7,11.3-10,22.3-16,33-8.7,14.7-18,28-28,40-12.7,15.3-26.3,27.7-41,37-13.3,8.7-29.3,16.7-48,24-15.3,6.7-30.2,11.7-44.5,15s-22.7,4.3-25,3-4.2-4.5-5.5-9.5-3.7-7.2-7-6.5-5,4.7-5,12v1c0,2.7-.8,4.5-2.5,5.5s-5.2,2.2-10.5,3.5c-3.3,1.3-7.7,3.7-13,7-7.3,6-13,13-17,21-6,10.7-8.8,22.5-8.5,35.5s4.8,25.2,13.5,36.5c7.3,9.3,15.5,16,24.5,20s18.5,6.7,28.5,8c2.7.7,5,2,7,4s3,4.3,3,7v61c0,2.7-1,5-3,7s-4.3,3-7,3h-108c-2.7,0-5-1-7-3s-3-4.3-3-7v-12c0-6-4.8-12.3-14.5-19s-21.5-12.3-35.5-17-26.3-7-37-7c-16.7.7-31.3,2.3-44,5-8.7,2-16,5-22,9l-7,4c-2,1.3-4.3,1.7-7,1l-3-2-4-7c-2-5.3-3-9.3-3-12,0-9.3,5.7-19.7,17-31,6-5.3,11.7-9.3,17-12s12.3-5.2,21-7.5,10-4.2,4-5.5h-6c-4.7,0-9.3.7-14,2-7.3,2-14,5-20,9-22,14-33,32.7-33,56v46c0,2.7-.8,5-2.5,7s-3.8,3-6.5,3h-106c-2,0-4-1-6-3s-3-4.3-3-7v-58c0-2,1.2-4.5,3.5-7.5s4.8-4.8,7.5-5.5l12-6c9.3-5.3,17.7-11.7,25-19,11.3-10,20-21.3,26-34,8-16,12-33.3,12-52s-6.3-46.7-19-66c-11.3-16-26-28.7-44-38-16-8.7-31.7-13-47-13Z"/>
    </g>
  </g>
</svg>