<?xml version="1.0" encoding="UTF-8"?>
<svg xmlns="http://www.w3.org/2000/svg" version="1.1" viewBox="0 0 1060 1060">
  <defs>
    <style>
      .cls-1 {
        fill: #f6d07d;
        stroke: #cda349;
        stroke-miterlimit: 10;
        stroke-width: 60px;
      }

      .cls-2 {
        fill: #989498;
      }
    </style>
  </defs>
  <!-- Generator: Adobe Illustrator 28.6.0, SVG Export Plug-In . SVG Version: 1.2.0 Build 709)  -->
  <g>
    <g id="Layer_1">
      <rect class="cls-1" x="30" y="30" width="1000" height="1000" rx="120" ry="120"/>
      <path class="cls-2" d="M867,860c-3.3,0-6.7-.3-10-1-8.7-1.3-18.7-3.7-30-7-15.3-4.7-32-10.3-50-17-23.3-10-45.3-23-66-39,.7-6.7-2.3-15.3-9-26-4.7-8-11.3-16.3-20-25l-8-8c-4-4.7-7.7-11-11-19s-5.3-14.5-6-19.5,0-9.5,2-13.5l1-3c1.3-4,1.2-6-.5-6s-3.7,3-6,9-3.5,13-3.5,21,2.7,22.7,8,40c1.3,5.3,2.3,13.7,3,25l-35-25c-10-8-19.3-16.7-28-26,3.3-2,6.5-5,9.5-9s5.2-13,6.5-27,.7-28.7-2-44c-2.7-17.3-7.3-31.3-14-42-4.7-9.3-10-17.7-16-25l-7-8-30-61c-4.7-10-11.2-21.3-19.5-34s-14.2-20.3-17.5-23v-1c-9.3-9.3-14.5-13.3-15.5-12s1.8,5.7,8.5,13c2.7,2.7,7,9.3,13,20,7.3,12.7,13.7,24.7,19,36,6.7,18,12,37.7,16,59l-2,10-1,16-14-24c-5.3-9.3-11.7-18-19-26-4.7-27.3-10.3-47.7-17-61s-15.7-25-27-35c-2-8.7-4.3-17-7-25-5.3-14-13.3-30.3-24-49l-4-8c-1.3-4-3.8-8.2-7.5-12.5s-5.7-6.3-6-6,1.2,3.5,4.5,9.5l2,4c.7,1.3,3,7.7,7,19l7,18c4.7,13.3,8,27.3,10,42-.7,2-1.3,3.7-2,5l-6,11c-2-3.3-4.7-6.7-8-10s-6.7-7.3-10-12c-3.3-21.3-8.2-42.3-14.5-63s-14.8-40-25.5-58c-4-7.3-8.5-14.5-13.5-21.5s-7.8-10.2-8.5-9.5,1,5.7,5,15l5,10c10,22,14.7,39.7,14,53-1.3,7.3-3.3,14.7-6,22l-14-13c-4.7-3.3-12-8.7-22-16,4.7-21.3,3.7-40.7-3-58-4-9.3-9-18.3-15-27-8.7-21.3-19-38.7-31-52-7.3-8.7-11.7-12-13-10l5,8c4.7,6.7,9.3,13.7,14,21,2,3.3,5,10.3,9,21l5,15c-1.3,3.3-2.5,6.7-3.5,10s-2.2,8-3.5,14c-10.7-16-22.3-29.5-35-40.5s-21.3-16.2-26-15.5c-.7,0,.7,1.3,4,4,15.3,14.7,27.7,29.7,37,45,15.3,24.7,21.3,43.7,18,57-1.3,2.7-4.3,4.7-9,6-2-19.3-7.7-35.7-17-49-6.7-10-15.3-19.7-26-29-7.3-6.7-15.3-13-24-19l-10-6c-12-14-22.3-29.3-31-46-4.7-9.3-10.3-22.7-17-40-4.7-10.7-7.5-16-8.5-16s.2,7.2,3.5,21.5,7.7,26.8,13,37.5l21,50c0,16.7,3,32.7,9,48,.7,7.3,2,15.8,4,25.5s4,16.8,6,21.5c4,10,9,19.3,15,28l-4-1c-3.3-.7-6-1.7-8-3s-6.8-5.8-14.5-13.5-14.2-14.5-19.5-20.5l-12-16c-9.3-12.7-14.5-18.7-15.5-18s1.7,6.5,8,17.5,12.8,21.5,19.5,31.5l24,32,3,12c4,10,9.2,17.7,15.5,23s12.8,10,19.5,14c5.3,2,10.3,3.7,15,5l5,1,16,22h-20c-6.7,0-13,.3-19,1-11.3-6.7-21.3-15-30-25-6-7.3-13-16.7-21-28l-6-7c-6.7-8-10.5-11.7-11.5-11s-.5,3,1.5,7,4,7.3,6,10l6,7c22.7,32,39,52.3,49,61,28,26,50.7,43,68,51,7.3,2.7,14.7,5,22,7l23,35-36-3c-1.3,0-5.7-1.8-13-5.5s-14-7.8-20-12.5c-10.7-9.3-23.7-22.3-39-39l-8-10c-3.3-4.7-5.2-6.8-5.5-6.5s.2,2.2,1.5,5.5,2.7,6,4,8c12,16.7,25,32,39,46,6,6.7,18.7,17.7,38,33l6,6c10,11.3,19.7,20.7,29,28,7.3,4.7,17.7,7.7,31,9l17,16,15,16,4,11c1.3,4,3,7.7,5,11l-8-2c-7.3-2-15.3-6-24-12-4.7-3.3-11.5-8.7-20.5-16s-14.5-12-16.5-14c-9.3-10-14.5-14.5-15.5-13.5s1.5,5.2,7.5,12.5c3.3,4.7,9.7,12,19,22,11.3,12,19.7,20,25,24l14,10c13.3,9.3,21.3,15.7,24,19,6,8,13.7,15.3,23,22,16,12,34.2,19.5,54.5,22.5s39.5,2.2,57.5-2.5c8.7-2.7,15.3-5.7,20-9,8.7,8,15.3,13.7,20,17,6,5.3,11.7,10.7,17,16-4.7.7-11,1-19,1s-19,1.3-33,4c-16,3.3-29.2,7.2-39.5,11.5s-19.8,10.2-28.5,17.5c-3.3,2.7-5.3,6-6,10,2.7,0,5.2-.8,7.5-2.5s7.5-4,15.5-7,14.3-4.5,19-4.5c10,0,22.3,2.3,37,7,6.7,2.7,15.7,4.7,27,6,14,2.7,27,4,39,4s25-2,39-6l6-2c.7,0,8.7,5,24,15,17.3,11.3,30,19,38,23,12,7.3,28,15.5,48,24.5s31.3,13.5,34,13.5c6-.7,14.3-5.3,25-14l11-11,2-5ZM268,377c-2,0-4.3-.7-7-2l-4-2c-7.3-5.3-13.2-11.5-17.5-18.5s-6.8-14.5-7.5-22.5c8,10.7,14.5,17.8,19.5,21.5s10.5,5.8,16.5,6.5l2,8v5c0,2.7-.7,4-2,4ZM311,464c-6-3.3-12-8.3-18-15l-6-9c5.3,1.3,10.7,2.3,16,3,3.3.7,7,.7,11,0l12,13,12,14h-8c-6-.7-12.3-2.7-19-6ZM356,375l5,5c4.7,4.7,9.7,10.3,15,17,4,5.3,6.7,11.7,8,19,1.3,5.3,1.5,9.8.5,13.5s-2.8,5.5-5.5,5.5l-4-1c-3.3-3.3-6.3-6.7-9-10l-9-11v-15l-1-23ZM411,582c-.7,1.3-2.7,1.5-6,.5s-7-2.5-11-4.5c-6-3.3-13.3-9.7-22-19l-12-14c5.3,1.3,10.2,2.3,14.5,3s8.5.3,12.5-1l15,17c4,4,6.7,7.7,8,11s1.7,5.7,1,7ZM440,473c2,1.3,4.7,2.3,8,3l3,21c.7,4.7,2,10.3,4,17l2,10-8-1c-1.3-2-3-4.3-5-7l-5-5-1-18c-1.3-8.7-3-17-5-25,2,2,4.3,3.7,7,5ZM472,681c-2.7-.7-5.8-2-9.5-4s-7.2-3.7-10.5-5c-8-3.3-14.7-8.7-20-16,5.3-.7,10.7-1,16-1s10,.7,14,2l24,21c-4.7,2-9.3,3-14,3ZM541,646l-6-8c-4-6-7-10-9-12l-10-12c.7-6,1.3-11.7,2-17,.7-3.3,1.3-8,2-14v-8c.7,0,3.2,2.8,7.5,8.5s8.2,11.5,11.5,17.5c4.7,8,7,14.7,7,20,1.3,8.7-.3,17-5,25Z"/>
    </g>
  </g>
</svg>