<?xml version="1.0" encoding="UTF-8"?>
<svg xmlns="http://www.w3.org/2000/svg" version="1.1" viewBox="0 0 1060 1060">
  <defs>
    <style>
      .cls-1 {
        fill: #989498;
      }

      .cls-2 {
        fill: #5c448e;
        stroke: #cda349;
        stroke-miterlimit: 10;
        stroke-width: 60px;
      }
    </style>
  </defs>
  <!-- Generator: Adobe Illustrator 28.6.0, SVG Export Plug-In . SVG Version: 1.2.0 Build 709)  -->
  <g>
    <g id="Layer_1">
      <rect class="cls-2" x="30" y="30" width="1000" height="1000" rx="120" ry="120"/>
      <path class="cls-1" d="M864,700c-1.3-9.3-6-20.2-14-32.5s-14.3-15.5-19-9.5c2.7,6.7,2.3,11.5-1,14.5s-7.3,3.8-12,2.5-7.5-4.5-8.5-9.5,1.5-10.8,7.5-17.5c-16.7-16.7-39.3-39-68-67l-43-44c-2,.7-6.8,4.8-14.5,12.5s-12.8,12.5-15.5,14.5c-2,1.3-3.8,1.2-5.5-.5s-.2-6.5,4.5-14.5l4-7L276,140l-110,110,22,48,11-8,18,37,11-10,18,39,9-9,19,38,9-10,18,37,10-11,17,39,11-12,18,40,9-10,19,39,11-11,17,39,11-12,17,40,10-11,18,38,9-9,19,38,10-10,18,37,9-10,19,39,9-9,19,37,10-11,19,38,9-9,20,39,10-11,17,40,59-60,2,3c2.7,2,5.7,3.7,9,5s7.7,2,13,2,9.7-.8,13-2.5,5-3.2,5-4.5-1-2.8-3-4.5-3.3-3.5-4-5.5c-.7-3.3.2-8,2.5-14s6-9.8,11-11.5,11.3-.5,19,3.5,12.3,11,14,21,0,18.5-5,25.5-22.5,27.2-52.5,60.5l-19,20-8,9c-6,4.7-10,8.3-12,11-3.3,4.7-5,9.3-5,14,0,11.3,6.5,21.2,19.5,29.5s27.5,11.5,43.5,9.5c.7-1.3.7-4.3,0-9-1.3-11.3-.7-20.7,2-28l1-1c4.7-11.3,9.3-20.7,14-28,8-12.7,19.3-26.7,34-42,3.3-4,8.3-9.3,15-16,11.3-12,19-21.3,23-28,6-11.3,8.3-24,7-38ZM737,663c-5.3,0-9.7-1.7-13-5s-5-7.8-5-13.5,1.7-10.2,5-13.5,7.8-5,13.5-5,10.3,1.7,14,5,5.5,7.7,5.5,13c0,12.7-6.7,19-20,19Z"/>
    </g>
  </g>
</svg>