<?xml version="1.0" encoding="UTF-8"?>
<svg xmlns="http://www.w3.org/2000/svg" version="1.1" viewBox="0 0 1060 1060">
  <defs>
    <style>
      .cls-1 {
        fill: #989498;
      }

      .cls-2 {
        fill: #5c448e;
        stroke: #cda349;
        stroke-miterlimit: 10;
        stroke-width: 60px;
      }
    </style>
  </defs>
  <!-- Generator: Adobe Illustrator 28.6.0, SVG Export Plug-In . SVG Version: 1.2.0 Build 709)  -->
  <g>
    <g id="Layer_1">
      <rect class="cls-2" x="30" y="30" width="1000" height="1000" rx="120" ry="120"/>
      <path class="cls-1" d="M860,626c12-13.3,20.3-28.7,25-46,4-15.3,5.7-33.7,5-55-.7-20.7-6.7-43-18-67-13.3-28-31.7-51-55-69-28-21.3-60.3-32.3-97-33-23.3,0-45.7,9.3-67,28-7.3,6.7-15.3,16-24,28-12,16.7-20.3,31.7-25,45-5.3,18-3.3,32.3,6,43,4,4,9.7,5.3,17,4s12.8-4.2,16.5-8.5,5.7-5.3,6-3-.7,5.3-3,9-5.7,7-10,10-9.8,5.5-16.5,7.5c-8.7,2-16.3,1.7-23-1-8.7-3.3-15-10.3-19-21-2.7-7.3-2.7-17.2,0-29.5s8-24.2,16-35.5c10.7-15.3,26-31.7,46-49,2.7-2,4-4.5,4-7.5s-.7-5.8-2-8.5c-10-14-25-26.3-45-37-26-14.7-55-22-87-22-53.3,0-103.3,28-150,84l-2,3c-6,6-12,14.7-18,26-7.3,14-12.3,26.7-15,38-2.7,14.7-1,25.8,5,33.5s13.3,10.8,22,9.5c5.3-1.3,10-3.7,14-7,4.7-4,7-5.3,7-4,.7,6-4.3,13.3-15,22-3.3,2.7-8.3,4.7-15,6-8,1.3-15.3,1-22-1-8-3.3-13.8-9.3-17.5-18s-4.3-19.7-2-33,6.8-26,13.5-38c5.3-9.3,18.7-25,40-47l4-5c3.3-3.3,4.7-7.3,4-12s-3.3-8-8-10c-7.3-3.3-15.3-5.3-24-6-6.7-.7-13.3-.3-20,1l-24,5c-12.7,3.3-25,8-37,14-17.3,7.3-32.7,16.7-46,28-17.3,13.3-31,29-41,47-12.7,21.3-20.3,45.3-23,72-1.3,15.3.7,32,6,50,5.3,20,14,37,26,51,24,28.7,61,47,111,55h3l5,3c51.3,31.3,115.2,47,191.5,47s139.8-10.7,190.5-32l3-1c.7,0,4.3-.3,11-1,36-1.3,66-5.7,90-13,22.7-6.7,42-16,58-28l8-7c8-6,13.7-10.7,17-14Z"/>
    </g>
  </g>
</svg>