<?xml version="1.0" encoding="UTF-8"?>
<svg xmlns="http://www.w3.org/2000/svg" version="1.1" viewBox="0 0 1060 1060">
  <defs>
    <style>
      .cls-1 {
        fill: #004da2;
        stroke: #cda349;
        stroke-miterlimit: 10;
        stroke-width: 60px;
      }

      .cls-2 {
        fill: #cda349;
      }
    </style>
  </defs>
  <!-- Generator: Adobe Illustrator 28.6.0, SVG Export Plug-In . SVG Version: 1.2.0 Build 709)  -->
  <g>
    <g id="Layer_1">
      <rect class="cls-1" x="30" y="30" width="1000" height="1000" rx="120" ry="120"/>
      <path class="cls-2" d="M864,832c-2.7-1.3-7-4.3-13-9l-1-2c-2-1.3-3.7-1.7-5-1l-12,12c-2.7,2.7-5,2.8-7,.5s-2-4.8,0-7.5l12-11-94-104-19,20c-1.3.7-2.8,1.2-4.5,1.5s-3.2-.2-4.5-1.5-1.8-2.8-1.5-4.5.8-2.8,1.5-3.5l75-75-22-22-39,39c-2,2-6.3,2.7-13,2-4.7,0-9.3-.7-14-2-2-.7-3.7-.7-5,0l-2,1-14,14h-2c-1.3,0-2.7-.7-4-2s-1.7-3.3-1-6l10-10-13-13c-2.7-8.7-3.8-17.8-3.5-27.5s2.2-19.2,5.5-28.5l-10-1c-8-2.7-16.7-6.3-26-11-13.3-7.3-26.7-17-40-29-26-24-60.3-57-103-99-48-47.3-84.7-85.2-110-113.5s-52-59.5-80-93.5l-35-42-130-63,63,130,42,35c34,28,65.2,54.7,93.5,80s66.2,62,113.5,110c42,42.7,75,77,99,103,16.7,19.3,28.7,37.7,36,55,3.3,8.7,5,15.7,5,21,9.3-3.3,18.8-5.2,28.5-5.5s18.8.8,27.5,3.5l21,21-4,3-1,2c-.7,1.3-.7,3,0,5,1.3,4.7,2,9.3,2,14,.7,6.7,0,11-2,13l-39,39,22,22,55-55,110,100,8,9c-.7,1.3-.3,3,1,5l2,1c4.7,6,7.7,10.5,9,13.5s2,7.8,2,14.5v9l5,2c4.7.7,9.7.7,15,0,10-1.3,18.2-5.2,24.5-11.5s10.2-14.5,11.5-24.5c.7-5.3.7-10.3,0-15l-2-5h-9c-6.7,0-11.7-.7-15-2ZM693,384c27.3-24.7,58-51,92-79l42-35,63-130-130,63-35,42c-28,34-54.7,64.7-80,92-28.7,32.7-69.7,75-123,127l44,43c52-52.7,94.3-93.3,127-122v-1ZM432,551c-13.3,12-26.7,21.7-40,29-9.3,4.7-18,8.3-26,11l-10,1c3.3,9.3,5.2,18.8,5.5,28.5s-.8,18.8-3.5,27.5l-13,13,10,10c.7,2.7.3,4.7-1,6s-2.7,2-4,2h-2l-14-14-2-1c-1.3-.7-3-.7-5,0-4.7,1.3-9.3,2-14,2-6.7.7-11,0-13-2l-39-39-22,22,75,75c.7.7,1.2,1.8,1.5,3.5s-.2,3.2-1.5,4.5-2.8,1.8-4.5,1.5-3.2-.8-4.5-1.5l-19-20c-57.3,64-88.7,98.7-94,104l12,11c2,2.7,2.3,4.8,1,6.5s-2.7,2.3-4,2-2.7-.8-4-1.5l-11-12c-2-.7-3.7-.3-5,1l-2,1c-6,5.3-10.5,8.7-13.5,10s-7.8,2-14.5,2h-9l-2,5c-.7,4.7-.7,9.7,0,15,1.3,10,5.2,18.2,11.5,24.5s14.5,10.2,24.5,11.5c8.7.7,15.3,0,20-2v-9c0-6.7.7-11.5,2-14.5s4.3-7.2,9-12.5l2-3c1.3-1.3,1.7-3,1-5l8-8,111-100,54,55,22-22-39-39c-2-2-2.7-6.3-2-13,0-4.7.7-9.3,2-14,.7-2,.7-3.7,0-5l-1-2-4-4,21-20c8.7-2.7,17.8-3.8,27.5-3.5s19.2,2.2,28.5,5.5l1-10c2.7-8,6.3-16.7,11-26,7.3-13.3,17.3-26.7,30-40l28-31-46-45c-10.7,10.7-20.7,20.3-30,29Z"/>
    </g>
  </g>
</svg>