<?xml version="1.0" encoding="UTF-8"?>
<svg xmlns="http://www.w3.org/2000/svg" version="1.1" viewBox="0 0 1060 1060">
  <defs>
    <style>
      .cls-1 {
        fill: #989498;
      }

      .cls-2 {
        fill: #5c448e;
        stroke: #cda349;
        stroke-miterlimit: 10;
        stroke-width: 60px;
      }
    </style>
  </defs>
  <!-- Generator: Adobe Illustrator 28.6.0, SVG Export Plug-In . SVG Version: 1.2.0 Build 709)  -->
  <g>
    <g id="Layer_1">
      <rect class="cls-2" x="30" y="30" width="1000" height="1000" rx="120" ry="120"/>
      <path class="cls-1" d="M532,335c0-10.7-2.7-22.3-8-35-3.3-6-6.3-11-9-15l-4,7c-3.3,6-6.3,12-9,18-2.7,8.7-4,17-4,25s1.3,16.3,4,25c2.7,6.7,5.7,13,9,19l4,8,4-8c3.3-6,6.3-12.3,9-19,2.7-8.7,4-17,4-25ZM864,646c4-10.7,5.2-21.7,3.5-33s-5.5-21.7-11.5-31c-8.7-13.3-18.3-22.3-29-27-5.3-2.7-9.7-4-13-4l-3-14c-4-11.3-9-22-15-32-8.7-13.3-19-24-31-32-15.3-9.3-32.7-14-52-14s-35,4.3-51,13l1-1c1.3-7.3,2.3-15,3-23,.7-11.3.3-22.3-1-33l-9,2c-7.3,3.3-14.7,8.3-22,15s-12,11.7-14,15c-3.3-22-11.3-39.7-24-53-11.3-12-23.3-18-36-18s-19.7,3.3-27,10c-6,4.7-10.7,10.7-14,18l-4,10-4-10c-3.3-7.3-8-13.3-14-18-7.3-6.7-16.3-10-27-10s-24.7,6-36,18c-12.7,13.3-20.7,31-24,53-2-3.3-6.7-8.3-14-15s-14.7-11.7-22-15l-8-2c-1.3,10.7-2,21.7-2,33,.7,8,2,15.7,4,23v1c-16-8.7-33-13-51-13s-36.7,4.7-52,14c-12,8-22.3,18.7-31,32-6,9.3-11,20-15,32l-3,14-6,1c-5.3,1.3-10.7,4-16,8-6.7,5.3-13.2,12.7-19.5,22s-10.3,19.7-12,31-.5,22.3,3.5,33l-7,5c-4.7,4.7-8.7,9.7-12,15-4.7,8-7,16-7,24,0,13.3,5.2,24.3,15.5,33s21.3,13,33,13,22.5-3,32.5-9c5.3,4.7,10.7,8,16,10s12.7,3.8,22,5.5c9.3,1.7,16.2,2.5,20.5,2.5s8.5-1.7,12.5-5l-10-3c-6.7-3.3-12.3-7.3-17-12-6.7-6.7-10-14.5-10-23.5s5.5-18,16.5-27,25.7-16.2,44-21.5,38.3-8,60-8,40.2,2.3,55.5,7c11.3,3.3,23.3,9.3,36,18,9.3,6,17.3,12.7,24,20,5.3,6,9,10.7,11,14l1,6c.7,3.3,1.5,6,2.5,8s2.8,4,5.5,6l4,2,4-2c2.7-2,4.5-4,5.5-6s1.8-4.7,2.5-8l1-6c2-3.3,5.7-8,11-14,6.7-7.3,15-14,25-20,12.7-8.7,24.3-14.7,35-18,15.3-4.7,33.8-7,55.5-7s41.7,2.7,60,8,33,12.5,44,21.5,16.5,18.2,16.5,27.5-6,22-18,30c-6.7,4-13,6.7-19,8,4,3.3,8.2,5,12.5,5s11.2-.8,20.5-2.5,16.8-3.5,22.5-5.5,10.8-5.3,15.5-10c10.7,6,21.8,9,33.5,9s22.5-4.3,32.5-13,15-19.7,15-33-2.3-16-7-24c-3.3-5.3-7.3-10.3-12-15l-7-5ZM800,591c4-6.7,8-13,12-19,12,2.7,20.7,9,26,19,2.7,5.3,4,11,4,17s-1,9-3,13l-2,6c-8.7-6-17.5-10.3-26.5-13s-17.8-4.7-26.5-6l6-6c4.7-4.7,8-8.3,10-11ZM622,480c2-6.7,4.7-13,8-19,2.7-4,6.7-8.3,12-13l7-5v9c0,7.3-1,13-3,17-4,10-12.3,20-25,30,.7-6,1-12.3,1-19ZM710,476c12.7,0,23.3,2.3,32,7,6.7,4,11.7,8.7,15,14l3,8-16-2c-13.3-.7-25.3,0-36,2-13.3,2.7-27.7,9.3-43,20l-9-1c-6.7,0-12,.3-16,1-8,2-15.3,4.7-22,8l13-15c11.3-11.3,22.7-20.7,34-28,16-9.3,31-14,45-14ZM528,433c2.7-8.7,7.2-16.2,13.5-22.5s12.5-9.5,18.5-9.5c11.3,0,20.7,9,28,27,6.7,15.3,10,32,10,50s-8.3,39-25,63c-10.7,16.7-24.7,33.3-42,50,7.3-11.3,13.7-23.3,19-36,8-20.7,12-39.3,12-56s-4.3-29.7-13-39c-6-6.7-14-11.7-24-15l3-12ZM515,467h6c4.7,2,8.3,5.3,11,10,4.7,6.7,7,16.2,7,28.5s-2.3,25.2-7,38.5c-2.7,10-6.3,19.7-11,29l-6,11-6-11c-4.7-9.3-8.3-19-11-29-4.7-13.3-7-26.2-7-38.5s2.3-21.8,7-28.5c2.7-4.7,6.3-8,11-10h6ZM470,401c6,0,12.2,3.2,18.5,9.5s10.8,13.8,13.5,22.5l3,13c-10,2.7-18,7.3-24,14-8.7,9.3-13,22.3-13,39s4,35.3,12,56c5.3,12,11.7,24,19,36-17.3-16.7-31.7-33.3-43-50-16-24-24-45-24-63s3.3-34.7,10-50c7.3-18,16.7-27,28-27ZM381,443c2.7,2,5,3.7,7,5,5.3,4.7,9.3,9,12,13,3.3,6,6,12.3,8,19,0,6.7.3,13,1,19-12.7-10-21-20-25-30-2-4-3-9.7-3-17v-9ZM320,476c14,0,29,4.7,45,14,11.3,7.3,22.7,16.7,34,28l13,15c-6.7-3.3-14-6-22-8-4-.7-9.3-1-16-1l-9,1-14-9c-11.3-6-21-9.7-29-11-10.7-2-22.7-2.7-36-2l-16,2,3-8c3.3-5.3,8.3-10,15-14,8.7-4.7,19.3-7,32-7ZM192,591c5.3-10,14-16.3,26-19l12,19c2,2.7,5.3,6.3,10,11l6,6c-8.7,1.3-17.5,3.3-26.5,6s-17.8,7-26.5,13l-2-6c-2-4-3-8.3-3-13s1.3-11.7,4-17ZM208,697c0,3.3.3,7,1,11-19.3-8.7-27.3-21.7-24-39,2-10.7,10-19.7,24-27,12-6.7,25.3-11,40-13,12-1.3,23.7-.7,35,2-50.7,18.7-76,40.7-76,66ZM298,559c-2.7,6-4,14.3-4,25l1,14-6-2c-5.3-1.3-10.3-3-15-5-6.7-3.3-12.3-7.7-17-13-11.3-13.3-17-25.7-17-37s2.3-7.3,7-12c6-6,13.7-9.7,23-11,13.3-2.7,26-2,38,2,6.7,2.7,12.3,6.7,17,12l-5,3c-4,2.7-8,5.7-12,9-4.7,4.7-8,9.7-10,15ZM361,543c10,0,21,3.3,33,10,8.7,4,17.3,9.7,26,17l11,10-20-3c-15.3-1.3-28-1.7-38-1-14.7,1.3-29,5-43,11-1.3-7.3-1.3-14.7,0-22,3.3-14.7,13.7-22,31-22ZM439,610c-4,2-7,5-9,9l-10-2c-9.3-1.3-19-2.3-29-3-14-.7-28-.3-42,1,5.3-5.3,12-10,20-14,12-6,25.7-9,41-9s33,4,41,12c-4,1.3-8,3.3-12,6ZM543,643c-6.7,4.7-13.3,11.3-20,20l-8,12-8-12c-6.7-8.7-13.3-15.3-20-20-9.3-6-19-10.7-29-14l5-3c3.3-2.7,7.3-4,12-4s12,2.3,18,7c8.7,6.7,16,16.7,22,30l6-11c5.3-8.7,10.8-15.2,16.5-19.5s11.5-6.5,17.5-6.5,8,1.3,12,4l5,3c-10.7,3.3-20.3,8-29,14ZM600,619c-2-4-5-7.2-9-9.5s-8-4.2-12-5.5c8-8,21.7-12,41-12s29,3,41,9,14.7,8.7,20,14c-14-1.3-28-1.7-42-1-10,.7-19.7,1.7-29,3l-10,2ZM700,587c-14-6-28.3-9.7-43-11-10-.7-22.7-.3-38,1l-20,3,11-10c8.7-7.3,17.3-13,26-17,12-6.7,23-10,33-10s20.7,3.7,26,11c4,6,6,13.3,6,22l-1,11ZM732,559c-2-5.3-5.3-10.3-10-15s-7.3-6.3-12-9l-5-3c4.7-5.3,10.3-9.3,17-12,12.7-4,25.3-4.7,38-2,9.3,1.3,17,5,23,11s7,8.7,7,12c0,11.3-5.7,23.7-17,37-6,7.3-14.3,12.7-25,16-4.7,2-9,3.3-13,4l1-14c0-10.7-1.3-19-4-25ZM821,708c.7-4,1-7.7,1-11,0-25.3-25.3-47.3-76-66,11.3-2.7,23-3.3,35-2,15.3,2,28.7,6.3,40,13,14,7.3,22,16.3,24,27,3.3,17.3-4.7,30.3-24,39Z"/>
    </g>
  </g>
</svg>