<?xml version="1.0" encoding="UTF-8"?>
<svg xmlns="http://www.w3.org/2000/svg" version="1.1" viewBox="0 0 1060 1060">
  <defs>
    <style>
      .cls-1 {
        fill: #a12c38;
        stroke: #cda349;
        stroke-miterlimit: 10;
        stroke-width: 60px;
      }

      .cls-2 {
        fill: #cda349;
      }
    </style>
  </defs>
  <!-- Generator: Adobe Illustrator 28.6.0, SVG Export Plug-In . SVG Version: 1.2.0 Build 709)  -->
  <g>
    <g id="Layer_1">
      <rect class="cls-1" x="30" y="30" width="1000" height="1000" rx="120" ry="120"/>
      <path class="cls-2" d="M765,645c-1.3-.7-2.3-.3-3,1l-64,63c-2,2-4.2,3.2-6.5,3.5s-4,0-5-1,.5-3.5,4.5-7.5l59-59c.7-.7,1-1.7,1-3-10-2.7-19.7-5.7-29-9-17.3-6.7-32.3-16.7-45-30-.7-.7-1.7-.3-3,1l-21,21c-1.3,1.3-3.3,2.2-6,2.5s-4.5,0-5.5-1,.2-3.2,3.5-6.5l23-23c1.3-.7,1.7-1.3,1-2-4.7-6-8.3-11.7-11-17l-3-7-76-54c-56-40.7-97.7-73-125-97l-238-212v-13l-67-53c-2-1.3-4-2-6-2l-2,1-1,2c0,2,.7,4,2,6l53,67h13l212,238c24,27.3,56.3,69,97,125l54,76,11,5c8.7,5.3,17,12,25,20,10.7,11.3,19.3,25.3,26,42,9.3,22.7,14,50.7,14,84s.3,8.3,1,9c2,2,4.7,1.7,8-1l52-53c4-3.3,7.3-3.3,10,0l9,9c2,2,7,2.7,15,2l10-2,64,63c-1.3,6-1.3,11.7,0,17,.7,3.3,2.7,7.3,6,12-.7,2.7,0,4.8,2,6.5s6,2.2,12,1.5l7-1c8-1.3,13-1,15,1,7.3,6,15,12,23,18,3.3,2,6,2.7,8,2l1-3c0-1.3-.7-3-2-5-6-8.7-12-16.7-18-24-2-2-2.3-7-1-15l1-7c.7-6,.2-9.8-1.5-11.5s-4.2-2.5-7.5-2.5l-27,28-1-2c0-2,.5-4.3,1.5-7s3.2-5.7,6.5-9l10-10c1.3-1.3,1.8-2.7,1.5-4s-1.2-2-2.5-2c-6-1.3-11.7-1.3-17,0l-63-64,1-10c1.3-7.3,1-12-1-14l-7-7c-.7-.7-1.7-.3-3,1l-14,14c-3.3,3.3-6.7,5.3-10,6s-5.3.7-6,0,0-2.3,2-5l81-81c3.3-2.7,3.7-5.3,1-8,0-.7-3-1-9-1-15.3,0-28.7-.7-40-2Z"/>
    </g>
  </g>
</svg>