<?xml version="1.0" encoding="UTF-8"?>
<svg xmlns="http://www.w3.org/2000/svg" version="1.1" viewBox="0 0 1060 1060">
  <defs>
    <style>
      .cls-1 {
        fill: #f6d07d;
        stroke: #cda349;
        stroke-miterlimit: 10;
        stroke-width: 60px;
      }

      .cls-2 {
        fill: #989498;
      }
    </style>
  </defs>
  <!-- Generator: Adobe Illustrator 28.6.0, SVG Export Plug-In . SVG Version: 1.2.0 Build 709)  -->
  <g>
    <g id="Layer_1">
      <rect class="cls-1" x="30" y="30" width="1000" height="1000" rx="120" ry="120"/>
      <path class="cls-2" d="M304,268c-1.3-1.3-1.3-2.7,0-4,34-28,50.7-42,50-42,2-2.7,4.3-3.3,7-2,5.3,3.3,11.3,5.3,18,6,16.7,0,27.3-3,32-9l19-24c10-12.7,17.8-21.5,23.5-26.5s25.2-13.2,58.5-24.5l4-2c.7,0,1.8.3,3.5,1s2.8,1.3,3.5,2l8,12c.7,2.7-.3,4.7-3,6-5.3,1.3-12,3.7-20,7-10.7,4-20,9-28,15-3.3,2-6.8,5.2-10.5,9.5s-6.3,8.3-8,12-2.2,15.8-1.5,36.5v6c0,6-4,13.7-12,23-5.3,7.3-8,12.7-8,16s3.7,15,11,31l4,7c0,1.3-.7,3.7-2,7l-1,3c0,.7,2,3.3,6,8s6,7.3,6,8l-3,7,58,65c1.3,2,2,3.5,2,4.5s-.3,1.8-1,2.5l-6,7c-2.7,2.7-6.3,7.7-11,15l-2,3c-2,2.7-2.3,4.8-1,6.5s3,1.8,5,.5l12-10,12-13c.7-.7,1.5-1,2.5-1s1.5.3,1.5,1l72,82c2,2.7,2.3,4.7,1,6-12.7,14-21.7,23.7-27,29s-.7,1.7,0,3,1.3,1.7,2,1c8-4,15.3-8.7,22-14,2-1.3,4.3-3.3,7-6l4-4c1.3-.7,2.7-.3,4,1,14.7,16,46.7,50.3,96,103,25.3,26.7,60,62.7,104,108l22,23c1.3,1.3,1.7,2.7,1,4l-3,2c-2,1.3-4.3,3.3-7,6-8,10-18,22-30,36-1.3,2-1.5,3.3-.5,4s2.5,0,4.5-2l2-1c13.3-10,23-17.7,29-23,3.3-2.7,6.3-5.7,9-9l4-4c1.3-1.3,2.7-1.7,4-1l24,26c1.3,1.3,2.3,3.2,3,5.5s1,4.2,1,5.5l-1,12c-3.3,26.7-5.7,40.3-7,41l-4,4c-8.7,8-14.2,12.5-16.5,13.5s-12.5,1-30.5,0-27.7-1.8-29-2.5-30-39-86-115l-127-173-165-205c-1.3.7-2.5,1.5-3.5,2.5s-2.5.8-4.5-.5l-4-5c-5.3-6.7-8.3-10.2-9-10.5s-1.8,0-3.5,1-3.2,1.3-4.5,1-7.3-4.2-18-11.5l-16-10c-2-.7-4-.3-6,1l-50,47c-2.7,2.7-7.7,13.7-15,33-10.7,29.3-20.3,51.7-29,67-11.3,19.3-25.7,40-43,62-14.7,18.7-29,34.7-43,48-.7.7-1.5,1-2.5,1s-1.8-.3-2.5-1l-12-12v-4c36-50.7,59.7-90,71-118,12-30,19.3-62,22-96,.7-8.7,1.3-13.7,2-15,3.3-3.3,8.2-9.5,14.5-18.5,6.3-9,9.5-14.2,9.5-15.5v-5c0-4.7,1.3-8,4-10,5.3-6,11.3-12.7,18-20,10-11.3,15.3-18.3,16-21,.7-5.3,0-10.7-2-16Z"/>
    </g>
  </g>
</svg>