<?xml version="1.0" encoding="UTF-8"?>
<svg xmlns="http://www.w3.org/2000/svg" version="1.1" viewBox="0 0 1060 1060">
  <defs>
    <style>
      .cls-1 {
        fill: #a12c38;
        stroke: #cda349;
        stroke-miterlimit: 10;
        stroke-width: 60px;
      }

      .cls-2 {
        fill: #cda349;
      }
    </style>
  </defs>
  <!-- Generator: Adobe Illustrator 28.6.0, SVG Export Plug-In . SVG Version: 1.2.0 Build 709)  -->
  <g>
    <g id="Layer_1">
      <rect class="cls-1" x="30" y="30" width="1000" height="1000" rx="120" ry="120"/>
      <path class="cls-2" d="M243,528c7.3,0,13.3,1,18,3,6.7,2.7,13.3,7.2,20,13.5s12,13.5,16,21.5c1.3,2.7,2.3,4,3,4l1-2c6-7.3,16.7-11.3,32-12,18-.7,36,5,54,17,5.3,4,12.3,12,21,24,4,6,6.3,8.8,7,8.5s.3-3-1-8-3.3-10.2-6-15.5l-2-3c-2.7-5.3-5-9.7-7-13-4.7-6-10.5-11.5-17.5-16.5s-14.8-8.8-23.5-11.5c-5.3-1.3-9.7-2.7-13-4-4.7-2.7-9.7-6.7-15-12-16.7-16.7-23.3-30.7-20-42,1.3-3.3,5.3-6.7,12-10-4-2-8-3-12-3-8.7,0-16.7-1.7-24-5-6-2-11.8-8.2-17.5-18.5s-9.2-20.8-10.5-31.5c-.7-4-.8-10.3-.5-19s.5-15,.5-19c-1.3-8-3.7-15-7-21-12.7-18-27.7-34-45-48-6.7-5.3-13.7-9.3-21-12,2,4.7,5,8.8,9,12.5s7.7,9.5,11,17.5c5.3,12,8,24.3,8,37s-3,16.5-9,29.5-9,22.8-9,29.5,2.3,13.7,7,21c2.7,4,7.3,9.3,14,16,5.3,6,8.8,10.3,10.5,13s2.5,6.2,2.5,10.5-.7,7-2,8-4.5.5-9.5-1.5-11.2-5.3-18.5-10c-3.3-2.7-8.2-7.2-14.5-13.5s-11.5-10.8-15.5-13.5c-6-4.7-13-7.7-21-9,.7,2.7,2,4.7,4,6v1c14.7,13.3,24,25.7,28,37,1.3,4,2,10.2,2,18.5s1,13.8,3,16.5c2.7,4,7.7,9.5,15,16.5s12,10.5,14,10.5l1-2c5.3-10.7,14.7-16,28-16ZM341,279c6,8.7,13,21.3,21,38s13.2,29.5,15.5,38.5,3.5,20.2,3.5,33.5c.7,11.3.3,18.7-1,22-.7,5.3-2.3,10.3-5,15,0-9.3-3.3-20.7-10-34-4-8.7-13-18.7-27-30l-6-5c-3.3-2.7-7-4.7-11-6l-5-1,11,15c6.7,8.7,11.3,16.7,14,24,5.3,12.7,8,27.3,8,44s-3,17-9,29l-4,7c-.7,3.3-.2,8.7,1.5,16s4,13,7,17,7.7,7.8,14,11.5c6.3,3.7,13.2,6.3,20.5,8s16,5.5,26,11.5,19.3,13.5,28,22.5,17.3,18.7,26,29,14.5,18.2,17.5,23.5,5.2,10.7,6.5,16l3-4c1.3-4.7,1-9.7-1-15v-1c-10-34.7-23.3-63-40-85-10-12.7-18-26-24-40-5.3-12-8.3-23-9-33-1.3-13.3,2.3-26.8,11-40.5s12.7-24.3,12-32-2-14.8-4-21.5l3,2c2.7,2.7,4.7,6,6,10,1.3,4.7,2,10.3,2,17s-1.3,8.3-4,17c-4.7,16.7-6.2,29.5-4.5,38.5s10.2,22.8,25.5,41.5c4.7,6,7.7,9.7,9,11,4,6.7,6.7,14.3,8,23,1.3-3.3,2-6.7,2-10s.8-6.8,2.5-14.5,3.7-13.7,6-18,6.3-9.3,12-15,9.8-8.7,12.5-9c2.7-.3,5.3.8,8,3.5,2-12,2.3-24,1-36-1.3-16-14.3-35.7-39-59-13.3-12-24-27.3-32-46-8.7-20-13.3-41.7-14-65-1.3-28.7,12.3-57,41-85l3-3,13-15-13,7c-11.3,6.7-22.7,15-34,25-14.7,13.3-29.7,31.7-45,55-6,9.3-9.7,19-11,29-2,8.7-2,15.7,0,21,.7,2,2.5,6.5,5.5,13.5s4.8,11.2,5.5,12.5c.7,4.7,1,9,1,13l-5-10c-4-7.3-7.7-13-11-17-6.7-6.7-14-12.7-22-18-5.3-4-14.3-9.3-27-16-8-4.7-15.7-8-23-10l-8-3,12,12c10,8.7,18,17,24,25ZM528,516c.7,4.7-.8,9.2-4.5,13.5s-7.2,6.5-10.5,6.5-6.3-1.7-9-5c-1.3-2-2.3-4-3-6-1.3.7-3.3,3.7-6,9s-4,11.7-4,19c0,12,4.7,24.3,14,37l18,25,1-4c.7-2.7.7-4.8,0-6.5s-1.7-3.5-3-5.5c-2.7-4-4-8.3-4-13-.7-10,2-19,8-27,2-3.3,4.5-6,7.5-8s5.7-2.3,8-1,2.8,4.7,1.5,10l-4,8c4.7-.7,8.3-2.7,11-6,10-10,15.7-21,17-33s-1.3-21.3-8-28c-10.7-10.7-15.3-20-14-28,.7-6,2.7-12.7,6-20,2.7-6.7,5.7-12.3,9-17l4-7c6.7-9.3,10-15.3,10-18-6,6-12,12.3-18,19-8.7,10-17,21-25,33-2.7,4.7-5.8,10.8-9.5,18.5s-5.5,12.5-5.5,14.5l2,2c6.7,4.7,10.3,10.7,11,18ZM617,442c2.7-3.3,7.3-8.3,14-15,12.7-12,21.3-20.7,26-26,8-10,13.3-19.7,16-29,1.3-4.7,2-12.7,2-24v-8c2,2.7,3.3,5.7,4,9,2,8.7,2.3,17.3,1,26-.7,6-2.7,13.2-6,21.5s-7.7,16.2-13,23.5-12.5,15.5-21.5,24.5-15.2,14.5-18.5,16.5l-12,7,3,4c2.7,3.3,4,6.7,4,10-.7,13.3-5.3,23-14,29-11.3,8.7-18,14.5-20,17.5s-2.7,6.5-2,10.5c2-2.7,4.7-4.8,8-6.5s6.7-1.2,10,1.5c1.3,1.3,1.8,3.5,1.5,6.5s-1.2,5.5-2.5,7.5l-17,23c-5.3,6.7-9.2,14.2-11.5,22.5s-2.5,16.5-.5,24.5l3-9c3.3-7.3,6.7-13.7,10-19,12-17.3,25-29.7,39-37,10-5.3,21.3-9.7,34-13l2-11c2-8.7,5.3-15.7,10-21,4.7-6.7,10.7-12.2,18-16.5s13.7-6.5,19-6.5l5-1c9.3-.7,15.3-1.3,18-2s6.3-2.7,11-6c6-4,11-8.3,15-13,6-6.7,10.3-14,13-22l2-9-5,6c-4.7,4.7-8.3,7.7-11,9-4,2.7-12.7,4.3-26,5l-8,1c-4.7,1.3-9,3.7-13,7l-9,6c0-2.7.7-5.5,2-8.5s4-6.5,8-10.5c5.3-6.7,11-11.3,17-14,14.7-6.7,25.3-14,32-22,4.7-4.7,8-10.3,10-17,.7-4,1.3-9.8,2-17.5s1.3-13.2,2-16.5c2.7-15.3,11.7-29.7,27-43,13.3-10.7,28-18.7,44-24-5.3-.7-10.7-1-16-1-12,2-23.7,5.3-35,10-16,6-29.3,15.7-40,29l-2,2c-4,5.3-7.3,9-10,11-4.7,3.3-9.3,4.3-14,3-8.7-2.7-13.3-10.7-14-24l1-13c0-11.3-.2-19.7-.5-25s-3.2-13.3-8.5-24c-5.3-10.7-11-20.3-17-29-8.7-12.7-18.7-24.7-30-36-9.3-8.7-19.7-15.7-31-21,2.7,4.7,5.7,8.7,9,12,9.3,8.7,16,17.3,20,26,6,15.3,9,31.7,9,49s-5.3,38.7-16,54c-5.3,6.7-13.5,15.2-24.5,25.5s-16.8,17.5-17.5,21.5c-1.3,8.7,0,16.7,4,24,2.7,6.7,3.3,13.7,2,21v1c-1.3,11.3-4,20-8,26l-23,34c0,.7,5.3-2.3,16-9s18.7-12.7,24-18ZM852,459c-4,4-8.3,9-13,15l-5,8c-4,4.7-8,8-12,10-2.7.7-6.7,1.3-12,2l-3,1c-5.3.7-11,.7-17,0,4-4.7,7.7-10,11-16,2-4,3.5-10.3,4.5-19s1-17.7,0-27-3-18.2-6-26.5-6-14.8-9-19.5-6.8-8.7-11.5-12l4,9c1.3,2,2.2,7.8,2.5,17.5s-.2,19.8-1.5,30.5c-.7,6.7-2.3,12.7-5,18-2,3.3-5,7.5-9,12.5s-7,9.2-9,12.5c-4.7,7.3-10.2,13.7-16.5,19s-14.8,10.3-25.5,15c-20.7,9.3-37,20-49,32s-9.3,11.3-14,20l-6,13c4.7-3.3,9.3-7,14-11,2.7-2,7.8-5,15.5-9s14.5-6.8,20.5-8.5,13.7-2.3,23-2,16.7,1.5,22,3.5c8,2.7,15.3,6.3,22,11,2.7-7.3,6.3-14,11-20,7.3-10,16-15.7,26-17l6-1c6.7,0,11.7-.3,15-1,6-2,11-5,15-9,6-5.3,10.7-13.3,14-24l4-12c2.7-5.3,7.3-11.3,14-18l10-9c-11.3,0-21.3,4-30,12ZM756,685c-6.7,0-12.7,3.7-18,11-2.7,4-5.7,11-9,21-2.7,6.7-4.8,11.3-6.5,14s-4.3,5-8,7-7.2,2-10.5,0c-6-4.7-7-13-3-25,2-5.3,9-14.3,21-27l8-10c16.7-19.3,25-38.3,25-57s-3.7-21.8-11-29.5-17-11.5-29-11.5c-20.7,0-36,7-46,21-.7.7-1.5,1-2.5,1s-1.8-.3-2.5-1c-2.7-4.7-5.8-8.7-9.5-12s-7.5-5.3-11.5-6-6.7-.3-8,1l3,4c2,3.3,2.7,6.7,2,10-1.3,7.3-12.3,15.7-33,25-14.7,6.7-32,11-52,13-11.3,1.3-26,2-44,2h-2c-18,0-32.7-.7-44-2-20-2-37.3-6.3-52-13-21.3-9.3-32.3-17.7-33-25h-1c-.7-4.7,1.3-9.3,6-14-2-1.3-4.8-1.7-8.5-1s-7.5,2.7-11.5,6-7,7.3-9,12c-.7.7-1.7,1-3,1s-2-.3-2-1c-10.7-14-26-21-46-21s-21.8,3.8-29.5,11.5-11.5,17.5-11.5,29.5c0,18,8.7,37,26,57l8,10c12,12.7,18.7,21.7,20,27,4.7,12,3.7,20.3-3,25-3.3,2-6.8,2-10.5,0s-6.2-4.3-7.5-7-3.3-7.3-6-14c-3.3-10-6.7-17-10-21-4.7-7.3-10.7-11-18-11-14,0-23,6.3-27,19-2.7,7.3-2.7,13.7,0,19s5.3,8,8,8v-6c.7-4,2-7,4-9,3.3-4,7.3-6,12-6s6.2,1.3,8.5,4,4.2,6,5.5,10c4,12.7,8.7,21.7,14,27s10.2,9.2,14.5,11.5,9.2,3.5,14.5,3.5,10-1,14-3l3-3c.7,8.7,2.7,17,6,25,4.7,12,12.3,21.7,23,29,4,2.7,9.5,5.8,16.5,9.5s12.5,6.8,16.5,9.5c8,5.3,15.3,11.7,22,19v8c0,3.3,2.7,7,8,11,6.7,4.7,15.7,8.7,27,12,16,4.7,35.2,7,57.5,7s41.2-2.3,56.5-7c11.3-3.3,20.3-7.3,27-12,5.3-4,8-7.7,8-11v-8c6.7-7.3,14-13.7,22-19,4-2.7,9.5-5.8,16.5-9.5s12.5-6.8,16.5-9.5c10.7-7.3,18.3-17,23-29,2.7-8,4.3-16.3,5-25l4,3c3.3,2,7.7,3,13,3s10.3-1.2,15-3.5,9.7-6.2,15-11.5,10-14.3,14-27c.7-3.3,2.3-6.3,5-9s5.3-4,8-4c4.7-.7,8.7,1,12,5,2,2,3.3,5.3,4,10l1,5c2.7,0,5.3-2.7,8-8s2.7-11.7,0-19c-4.7-12.7-14-19-28-19ZM357,718c-2.7,4.7-6.7,8.3-12,11v-5c0-4-.7-8-2-12-2.7-6.7-7-13.3-13-20l-4-6c-12.7-14.7-20-26.2-22-34.5s-1.5-16,1.5-23,6.8-11.5,11.5-13.5c9.3-4,20-1,32,9,6,5.3,10.7,11.3,14,18,2,4.7,3,9,3,13s-.7,7-2,9-3,3-5,3c-4,0-6.7-1-8-3s-2.3-4-3-6c-4,0-5.7,4.2-5,12.5s5,13.8,13,16.5c3.3.7,6.7.7,10,0l1,4c0,3.3-.7,7-2,11-1.3,5.3-4,10.7-8,16ZM675,729c-5.3-2.7-9.7-6.5-13-11.5s-5.7-10.2-7-15.5c-1.3-4-2-7.7-2-11l1-5c3.3,1.3,6.7,1.7,10,1,8-2.7,12.2-8.2,12.5-16.5s-1.2-12.5-4.5-12.5c-.7,2-1.7,4-3,6s-4,3-8,3-3.7-1-5-3-2-5-2-9,1-8.3,3-13c3.3-6.7,8-12.7,14-18,12-10,22.7-13,32-9,4.7,2,8.5,6.5,11.5,13.5s3.5,14.7,1.5,23-9.3,19.8-22,34.5l-5,6c-5.3,6.7-9.3,13.3-12,20-1.3,4.7-2,8.7-2,12v5Z"/>
    </g>
  </g>
</svg>