<?xml version="1.0" encoding="UTF-8"?>
<svg xmlns="http://www.w3.org/2000/svg" version="1.1" viewBox="0 0 1060 1060">
  <defs>
    <style>
      .cls-1 {
        fill: #989498;
      }

      .cls-2 {
        fill: #5c448e;
        stroke: #cda349;
        stroke-miterlimit: 10;
        stroke-width: 60px;
      }
    </style>
  </defs>
  <!-- Generator: Adobe Illustrator 28.6.0, SVG Export Plug-In . SVG Version: 1.2.0 Build 709)  -->
  <g>
    <g id="Layer_1">
      <rect class="cls-2" x="30" y="30" width="1000" height="1000" rx="120" ry="120"/>
      <path class="cls-1" d="M888,854c-.7-2-13-16-37-42l-35-38v-11c0-7.3-.3-12.7-1-16s-3-8-7-14c-6.7-8.7-10-15.7-10-21s2.7-10.7,8-16l8-7-10-9c-7.3-6.7-13.5-10-18.5-10s-8.5.8-10.5,2.5-3.8,3.8-5.5,6.5-3.3,4.5-5,5.5-4.2,1.5-7.5,1.5-5.8-1.2-7.5-3.5-2-4.7-1-7,3.2-5.3,6.5-9,5.8-6.8,7.5-9.5,2.8-6.2,3.5-10.5,1.2-11.7,1.5-22-1.2-23.2-4.5-38.5c-2.7-9.3-5-17-7-23-1.3-4.7-5.3-6.7-12-6-2,0-7.7,4-17,12-7.3,7.3-12,11.5-14,12.5s-3.8.8-5.5-.5-2.5-3.3-2.5-6,6.3-11,19-25c7.3-7.3,11.3-12,12-14,3.3-5.3,4.5-10.7,3.5-16s-6.3-16.5-16-33.5-17.2-27.7-22.5-32-11-4.8-17-1.5c-2,1.3-16,14.3-42,39-28.7,27.3-44,41.5-46,42.5s-3.3,1.2-4,.5-.8-1.8-.5-3.5,12.5-16.5,36.5-44.5c23.3-25.3,36.3-40.3,39-45,5.3-7.3,6.2-14.7,2.5-22s-11.7-17-24-29-22.3-19.3-30-22-13.5-2.7-17.5,0c-1.3,1.3-20.7,20-58,56l-41,39c-.7.7-1.3.7-2,0s-.8-1.8-.5-3.5,13.2-17.5,38.5-47.5c25.3-30,40-48.3,44-55,3.3-4.7,3.7-9.2,1-13.5s-10.2-10.8-22.5-19.5-21.2-13.7-26.5-15c-8.7-2-15.3-1.7-20,1-2,.7-10,8.2-24,22.5s-21.8,21.7-23.5,22-3.2-.3-4.5-2-1.5-3.8-.5-6.5,9.8-14.3,26.5-35l1-2c2.7-2.7,3.7-6.2,3-10.5s-2.3-7.5-5-9.5c-7.3-4.7-21.2-7.8-41.5-9.5s-33.5-1.2-39.5,1.5c-2.7.7-8.3,5-17,13-7.3,6-11.3,9-12,9-7.3,2.7-10-.3-8-9,0-2,2-4.7,6-8,6.7-6,10.2-11.5,10.5-16.5s-2.8-11.8-9.5-20.5c-2.7-4.7-6-8.7-10-12l-7,8c-6,5.3-11.3,8.3-16,9s-11.7-2.7-21-10c-6-4.7-10.3-7-13-7-6-1.3-15-1.7-27-1l-38-35c-26-24-40.2-36.5-42.5-37.5s-4.8-1.5-7.5-1.5-4.7.7-6,2-.7,5,2,11c.7,2.7,13,16.7,37,42l35,39v10c0,7.3.3,12.7,1,16s3.3,8,8,14c6.7,9.3,9.8,16.3,9.5,21s-3.2,10-8.5,16c-2.7,2.7-5.3,5-8,7l13,11c9.3,7.3,16.3,11,21,11,2-.7,4.5-.2,7.5,1.5s5.2,3.8,6.5,6.5,0,8.3-4,17-6,14.7-6,18c0,5.3,2.5,17.2,7.5,35.5s8.5,28.7,10.5,31,5.3,3.2,10,2.5,7.8-.2,9.5,1.5.8,5.8-2.5,12.5c-2.7,5.3-4,9.3-4,12-.7,9.3,8,27.3,26,54,20,30,43.7,58.3,71,85s54.3,47.7,81,63c20.7,11.3,36.3,17,47,17s14.7-3.3,22-10c2-2,3.5-2.8,4.5-2.5s1.2,3.2.5,8.5-.7,8.7,0,10c3.3,4.7,8.3,8.7,15,12,10.7,5.3,24.7,8.7,42,10,24,1.3,39-.3,45-5,1.3-.7,2.3-1,3-1,4,1.3,6.2,3.2,6.5,5.5s.2,5.5-.5,9.5l-1,4c-.7,4.7,2.3,11.3,9,20l11,11,7-8c6-5.3,11.3-8.3,16-9s11.7,2.7,21,10c6,4.7,10.3,7.3,13,8,6,.7,15,.7,27,0l38,36c26,23.3,40.2,35.5,42.5,36.5s4.8,1.5,7.5,1.5,4.7-.7,6-2,.7-5-2-11ZM595,757c-2.7.7-8,3.7-16,9-17.3,10.7-32.3,18.3-45,23-21.3,9.3-42.7,14.3-64,15-44.7,1.3-79.3-21-104-67-5.3-10.7-15.7-37-31-79l-13-35c-9.3-24.7-21-44.7-35-60-16.7-18.7-36.3-29.3-59-32-18.7-2-35.3.7-50,8-11.3,5.3-20.7,13.7-28,25-6,9.3-9.3,18.2-10,26.5s.3,14.2,3,17.5,5.3,5,8,5c5.3,0,8.7-2.3,10-7,4-12.7,10.3-23.3,19-32,12-12,27.3-16.7,46-14,22,2.7,40.7,17.3,56,44,9.3,15.3,20.3,42,33,80,10,28,17.7,47.3,23,58,19.3,38,42.7,64,70,78,21.3,11.3,46,15.7,74,13,51.3-5.3,99-25.3,143-60,1.3-.7,2.3-2,3-4s.7-3.3,0-4c-1.3-3.3-6.2-6-14.5-8s-14.5-2-18.5,0Z"/>
    </g>
  </g>
</svg>